{"glyphs":{"0":{"ha":881,"x_min":44,"x_max":831,"o":"m 500 -15 q 406 -18 453 -18 q 313 -10 358 -18 q 244 9 278 -3 q 183 42 211 21 q 110 132 136 76 q 69 244 83 188 q 49 395 53 319 q 50 546 44 471 q 66 685 54 617 q 104 819 78 754 q 142 897 119 860 q 199 960 165 933 q 280 1004 235 989 q 372 1025 325 1019 q 414 1030 393 1026 q 456 1032 435 1033 q 533 1027 494 1031 q 608 1015 571 1024 q 663 998 636 1008 q 713 971 689 988 q 768 910 744 946 q 804 836 792 875 q 822 734 819 786 q 826 629 825 682 q 827 408 831 519 q 792 190 824 297 q 743 95 776 140 q 665 24 710 50 q 585 -6 629 1 q 500 -15 542 -12 m 447 244 q 485 247 465 243 q 518 263 504 250 q 553 313 542 282 q 568 375 564 344 q 579 465 575 419 q 585 554 583 510 q 582 617 585 586 q 572 681 579 649 q 556 724 565 703 q 529 760 546 744 q 465 785 503 783 q 399 767 426 788 q 369 733 381 753 q 350 690 357 713 q 335 617 339 654 q 332 542 332 579 q 331 438 331 490 q 346 335 332 386 q 360 295 351 315 q 386 264 369 275 q 416 251 400 254 q 447 244 432 247 z "},"1":{"ha":582,"x_min":-21,"x_max":526,"o":"m 447 -21 q 394 -31 425 -28 q 330 -34 363 -35 q 269 -26 297 -33 q 224 -1 240 -18 q 208 22 214 10 q 199 47 201 35 q 185 126 188 86 q 182 206 182 165 q 183 372 179 289 q 193 539 186 456 q 206 676 199 608 q 226 813 213 744 q 134 806 181 807 q 42 813 88 806 q 16 819 29 815 q -6 835 3 824 q -17 869 -17 850 q -14 936 -21 900 q -2 969 -11 953 q 21 996 7 985 q 52 1012 35 1007 q 88 1018 69 1017 q 123 1018 96 1018 q 181 1018 150 1018 q 238 1017 211 1018 q 274 1017 265 1017 q 338 1018 306 1017 q 403 1018 371 1019 q 449 1013 425 1018 q 488 993 472 1008 q 512 938 506 975 q 518 856 518 900 q 514 771 518 813 q 508 703 510 729 q 503 461 500 581 q 517 219 506 342 q 522 161 519 190 q 526 101 525 132 q 524 58 526 81 q 508 18 521 36 q 481 -6 497 3 q 447 -21 465 -15 z "},"2":{"ha":808,"x_min":42,"x_max":769,"o":"m 528 -25 q 352 -27 440 -28 q 176 -14 264 -26 q 135 -7 156 -11 q 96 6 115 -3 q 75 18 82 11 q 61 40 68 25 q 51 88 53 58 q 51 150 49 118 q 59 211 53 182 q 75 257 65 240 q 140 325 99 299 q 221 375 181 351 q 308 424 265 399 q 388 482 350 450 q 436 528 414 503 q 474 585 458 554 q 486 621 482 601 q 489 659 490 640 q 479 694 488 678 q 456 719 471 710 q 406 736 433 733 q 354 736 379 739 q 265 716 308 731 q 176 692 221 701 q 136 688 157 688 q 99 697 115 688 q 74 719 83 704 q 57 751 64 735 q 46 798 49 774 q 42 846 43 822 q 45 894 42 869 q 60 942 49 919 q 101 982 74 971 q 324 1035 206 1025 q 551 1014 443 1046 q 598 996 575 1007 q 640 969 621 985 q 691 919 668 949 q 729 858 714 890 q 763 745 756 806 q 756 628 769 685 q 704 513 740 567 q 622 417 668 460 q 524 333 574 374 q 426 251 475 293 q 482 254 444 251 q 561 258 519 257 q 640 259 603 260 q 693 250 676 258 q 725 217 714 240 q 739 173 736 196 q 743 126 742 150 q 740 67 744 97 q 718 13 736 36 q 683 -8 707 -1 q 629 -19 658 -15 q 572 -24 600 -22 q 528 -25 544 -25 z "},"3":{"ha":754,"x_min":39,"x_max":714,"o":"m 533 19 q 363 -20 453 -14 q 189 -8 274 -26 q 149 0 169 -4 q 110 13 129 4 q 83 26 96 18 q 61 46 71 35 q 51 65 54 54 q 44 86 47 75 q 40 139 40 110 q 47 195 40 168 q 68 244 54 222 q 106 276 82 267 q 156 283 131 286 q 205 274 181 281 q 254 260 229 267 q 306 250 279 253 q 360 250 333 247 q 390 258 375 253 q 418 272 406 264 q 459 323 443 290 q 461 383 475 356 q 428 417 450 406 q 392 428 411 425 q 353 435 372 432 q 323 434 343 435 q 281 433 303 433 q 240 435 258 433 q 213 440 221 436 q 186 474 193 451 q 176 517 179 496 q 173 563 174 540 q 176 608 172 586 q 187 638 181 624 q 204 663 193 651 q 229 676 215 672 q 257 683 243 681 q 299 688 275 685 q 345 698 322 692 q 386 715 368 704 q 408 742 404 725 q 406 774 414 760 q 383 796 399 788 q 348 808 368 804 q 308 810 328 811 q 258 799 289 808 q 195 780 228 789 q 133 768 163 771 q 90 776 104 765 q 64 813 72 792 q 50 857 56 835 q 42 904 44 879 q 42 951 39 929 q 55 992 44 974 q 86 1017 65 1010 q 222 1049 153 1040 q 363 1050 292 1057 q 468 1030 415 1044 q 568 988 521 1015 q 639 928 607 964 q 682 849 671 893 q 683 759 693 806 q 651 672 672 713 q 596 607 631 635 q 521 560 561 579 q 648 451 597 522 q 710 294 699 379 q 710 215 714 254 q 676 131 703 171 q 613 65 651 93 q 533 19 575 38 z "},"4":{"ha":858,"x_min":29,"x_max":810,"o":"m 735 13 q 685 -6 715 0 q 621 -11 654 -11 q 556 -6 588 -11 q 503 8 524 0 q 487 17 494 13 q 474 29 479 22 q 465 52 468 36 q 460 85 461 68 q 458 119 458 103 q 458 144 458 136 q 467 293 461 221 q 440 291 461 293 q 414 289 419 289 q 294 286 354 286 q 174 297 233 286 q 125 309 149 301 q 82 332 101 317 q 42 393 51 354 q 34 477 29 433 q 47 561 39 521 q 83 708 61 636 q 125 853 104 781 q 148 947 139 900 q 174 1040 157 994 q 188 1069 181 1056 q 208 1092 196 1083 q 247 1107 222 1101 q 297 1113 271 1113 q 349 1108 324 1113 q 390 1097 374 1104 q 417 1080 406 1090 q 433 1054 428 1069 q 443 1013 442 1035 q 442 972 444 992 q 431 918 438 944 q 415 864 424 892 q 370 731 393 797 q 333 593 347 664 q 328 567 331 583 q 324 534 325 551 q 323 501 322 517 q 329 476 324 485 q 340 467 332 471 q 356 462 347 464 q 374 458 365 460 q 389 457 383 457 q 438 457 414 456 q 488 458 463 458 q 488 494 488 467 q 490 552 489 521 q 493 610 492 583 q 494 646 494 638 q 504 756 497 701 q 528 863 511 810 q 542 895 533 879 q 561 922 550 911 q 606 946 579 939 q 649 953 624 950 q 699 954 674 956 q 746 946 724 953 q 781 925 768 939 q 803 882 796 907 q 808 833 810 857 q 801 765 806 799 q 793 697 797 732 q 772 383 772 540 q 776 244 774 313 q 775 107 779 176 q 764 54 772 81 q 735 13 756 28 z "},"5":{"ha":776,"x_min":44,"x_max":732,"o":"m 522 -7 q 347 -30 439 -39 q 176 25 254 -21 q 122 64 149 40 q 77 115 96 88 q 51 173 58 143 q 56 232 44 203 q 97 282 68 263 q 165 312 126 304 q 240 313 204 319 q 277 302 260 310 q 310 282 294 294 q 320 273 313 279 q 336 260 328 267 q 353 247 344 253 q 365 239 361 240 q 410 237 388 232 q 450 255 432 242 q 481 288 468 268 q 500 332 494 308 q 493 438 513 385 q 474 472 486 456 q 447 499 463 488 q 379 526 419 522 q 313 522 346 531 q 247 501 279 513 q 208 487 228 494 q 168 481 188 479 q 124 500 143 482 q 99 531 110 514 q 81 565 89 547 q 49 707 50 632 q 57 854 49 782 q 72 933 61 893 q 113 1000 83 974 q 142 1020 125 1013 q 175 1032 158 1028 q 226 1039 200 1038 q 276 1039 251 1040 q 392 1029 335 1038 q 507 1019 449 1021 q 547 1020 522 1019 q 599 1019 572 1021 q 648 1011 625 1017 q 681 994 671 1006 q 700 957 696 979 q 701 914 704 935 q 689 855 699 885 q 656 806 679 825 q 607 782 635 788 q 551 776 579 776 q 454 787 503 776 q 357 811 406 797 q 322 820 346 814 q 288 821 299 826 q 274 802 279 818 q 268 776 269 786 q 263 724 264 750 q 263 669 261 697 q 263 651 263 664 q 265 635 263 639 q 278 633 269 628 q 294 642 288 638 q 341 671 318 656 q 389 697 364 686 q 446 714 417 708 q 503 717 475 719 q 632 663 578 710 q 681 604 661 639 q 711 533 701 569 q 731 383 731 460 q 715 232 732 307 q 680 136 704 183 q 619 53 656 89 q 522 -7 576 11 z "},"6":{"ha":758,"x_min":38,"x_max":739,"o":"m 474 -8 q 350 -10 411 -19 q 233 29 289 0 q 168 74 199 49 q 114 132 138 100 q 85 181 97 156 q 63 235 72 207 q 42 342 47 288 q 40 453 38 397 q 71 617 47 536 q 135 769 94 697 q 224 893 171 836 q 342 988 276 950 q 399 1010 368 1003 q 460 1011 431 1018 q 519 980 494 1003 q 556 926 544 957 q 566 860 568 894 q 544 797 564 826 q 484 741 521 763 q 411 697 447 719 q 342 643 375 674 q 286 574 308 613 q 256 497 265 538 q 243 415 246 456 q 318 508 269 472 q 379 542 346 529 q 447 557 413 554 q 525 553 486 561 q 599 531 564 546 q 649 496 626 517 q 689 450 672 475 q 728 348 717 401 q 728 240 739 294 q 688 135 717 183 q 613 53 658 88 q 546 14 582 29 q 474 -8 510 -1 m 426 203 q 465 196 444 192 q 500 215 486 200 q 516 242 511 226 q 524 272 521 257 q 521 336 528 303 q 492 390 514 369 q 462 405 478 403 q 431 401 446 407 q 403 381 415 394 q 386 350 392 368 q 381 310 381 332 q 385 268 381 289 q 400 229 390 247 q 426 203 410 211 z "},"7":{"ha":715,"x_min":36,"x_max":690,"o":"m 350 -22 q 299 -26 329 -26 q 237 -22 268 -26 q 178 -6 206 -17 q 138 21 151 4 q 123 46 128 32 q 117 74 118 60 q 119 117 115 96 q 126 160 122 139 q 155 263 138 213 q 192 365 172 314 q 160 363 176 364 q 128 365 143 363 q 101 374 113 367 q 88 397 90 382 q 88 438 85 417 q 122 483 90 474 q 165 490 143 490 q 207 488 186 490 q 223 487 210 488 q 239 485 236 486 q 294 606 265 547 q 350 724 322 664 q 259 715 304 719 q 168 710 214 710 q 125 713 146 710 q 85 726 104 715 q 47 778 57 744 q 38 828 39 801 q 39 879 36 854 q 47 926 42 903 q 67 965 51 950 q 99 984 81 979 q 136 992 117 989 q 167 994 144 993 q 214 997 189 996 q 261 999 239 997 q 292 1000 283 1000 q 405 1001 349 1001 q 518 1003 461 1000 q 570 1004 544 1004 q 621 1001 596 1004 q 661 988 644 997 q 685 954 679 975 q 687 909 690 933 q 675 860 683 885 q 658 817 667 836 q 633 760 646 789 q 608 704 619 732 q 566 594 585 650 q 531 481 547 538 q 556 483 540 482 q 587 482 571 483 q 617 476 603 481 q 639 465 632 472 q 654 424 654 450 q 638 382 654 397 q 621 372 631 375 q 601 367 611 369 q 581 367 594 367 q 551 367 567 367 q 521 369 535 368 q 500 374 507 371 q 467 224 481 299 q 453 149 460 186 q 438 76 447 113 q 425 40 432 58 q 404 8 418 22 q 350 -22 382 -14 z "},"8":{"ha":838,"x_min":36,"x_max":796,"o":"m 467 -22 q 319 -16 393 -29 q 182 35 244 -3 q 109 96 142 58 q 57 176 76 133 q 39 271 36 219 q 65 381 42 326 q 128 476 88 436 q 164 508 144 494 q 203 533 183 522 q 117 635 149 572 q 89 765 86 699 q 124 865 92 819 q 172 911 144 892 q 231 946 200 931 q 338 981 282 969 q 451 996 394 993 q 567 985 510 999 q 672 939 624 971 q 744 869 717 911 q 778 778 771 826 q 774 680 786 729 q 732 588 763 631 q 689 540 713 561 q 638 501 665 519 q 684 471 661 488 q 726 433 707 454 q 759 390 744 413 q 781 342 774 367 q 792 245 796 294 q 767 151 789 196 q 715 83 747 113 q 646 33 682 54 q 559 -3 606 10 q 467 -22 513 -17 m 363 643 q 396 626 378 632 q 432 621 414 619 q 465 625 447 621 q 500 637 483 629 q 528 656 517 644 q 544 682 540 667 q 537 713 547 697 q 511 735 526 728 q 463 745 489 746 q 413 736 436 744 q 367 710 389 729 q 351 667 346 692 q 356 654 353 663 q 363 643 360 646 m 338 306 q 361 288 346 296 q 394 274 376 281 q 431 265 413 268 q 461 263 449 263 q 517 290 494 265 q 536 347 539 314 q 522 379 533 365 q 495 403 511 393 q 459 417 479 413 q 421 421 439 421 q 355 398 385 419 q 326 340 325 376 q 338 306 326 321 z "},"9":{"ha":758,"x_min":21,"x_max":724,"o":"m 418 15 q 360 -7 392 0 q 299 -7 329 -14 q 239 24 264 1 q 202 78 214 47 q 192 144 190 110 q 215 207 194 178 q 276 263 239 242 q 347 307 313 285 q 417 361 385 331 q 472 429 450 392 q 503 506 493 465 q 517 589 514 547 q 442 496 490 532 q 313 446 383 453 q 161 474 232 439 q 110 507 133 486 q 71 554 86 528 q 31 656 42 601 q 31 764 21 710 q 72 869 42 821 q 146 951 101 917 q 218 992 179 976 q 297 1014 257 1007 q 424 1010 360 1024 q 543 965 488 997 q 616 907 583 942 q 669 832 649 872 q 706 732 694 785 q 719 626 717 679 q 699 424 724 525 q 625 235 674 322 q 535 111 588 168 q 418 15 483 54 m 268 614 q 297 599 281 601 q 328 603 313 597 q 355 623 343 610 q 372 654 367 636 q 378 694 378 672 q 374 736 379 715 q 359 774 369 757 q 333 801 349 792 q 294 808 315 813 q 258 788 272 804 q 242 761 247 776 q 235 731 238 746 q 238 667 232 700 q 268 614 244 635 z "},"\u0000":{"ha":0,"x_min":0,"x_max":0,"o":""},"\r":{"ha":417,"x_min":0,"x_max":0,"o":""}," ":{"ha":417,"x_min":0,"x_max":0,"o":""},"!":{"ha":411,"x_min":51,"x_max":360,"o":"m 281 317 q 233 306 260 306 q 183 308 207 306 q 146 317 164 311 q 113 336 128 322 q 94 364 100 347 q 85 396 89 381 q 83 414 85 400 q 78 442 81 428 q 75 470 76 457 q 72 488 74 483 q 69 504 71 492 q 66 530 68 517 q 63 556 64 543 q 61 572 61 568 q 53 739 54 656 q 67 906 51 822 q 79 954 71 929 q 107 994 88 979 q 159 1016 129 1013 q 217 1019 189 1019 q 253 1017 235 1019 q 290 1008 272 1015 q 322 990 307 1003 q 343 961 336 978 q 357 900 354 932 q 360 836 360 868 q 357 726 360 781 q 350 615 354 671 q 341 503 347 558 q 321 392 335 447 q 308 349 317 371 q 281 317 300 328 m 250 -14 q 209 -19 231 -18 q 167 -15 188 -19 q 115 3 136 -11 q 84 35 96 15 q 67 78 72 56 q 67 144 60 110 q 97 201 75 178 q 136 226 113 218 q 186 237 160 235 q 238 234 213 239 q 282 217 263 229 q 311 189 301 204 q 328 149 322 172 q 333 102 333 126 q 325 56 332 78 q 306 18 318 33 q 250 -14 285 -7 z "},"\"":{"ha":551,"x_min":33,"x_max":519,"o":"m 206 665 q 176 655 193 658 q 142 653 160 651 q 108 659 125 654 q 82 672 92 664 q 56 714 65 685 q 41 777 46 743 q 35 844 36 811 q 33 897 33 876 q 33 927 33 913 q 38 957 33 942 q 47 974 40 965 q 61 986 53 982 q 85 994 72 993 q 110 999 97 996 q 147 1001 126 1001 q 185 998 167 1001 q 219 986 204 994 q 242 963 235 978 q 250 926 249 944 q 250 888 251 907 q 248 856 250 879 q 244 807 246 833 q 240 758 242 781 q 236 726 238 735 q 227 692 233 710 q 206 665 221 674 m 474 663 q 444 653 461 656 q 410 651 428 650 q 376 657 392 651 q 349 671 360 663 q 323 713 332 683 q 308 776 314 742 q 302 842 303 810 q 301 896 301 875 q 301 926 301 911 q 306 954 301 940 q 329 985 311 976 q 353 992 340 990 q 378 997 365 994 q 415 999 394 999 q 453 996 435 1000 q 488 983 472 992 q 510 960 503 975 q 518 924 517 943 q 518 886 519 906 q 516 855 518 878 q 512 806 514 832 q 508 756 510 779 q 504 725 506 733 q 495 690 501 707 q 474 663 489 672 z "},"«":{"ha":551,"x_min":33,"x_max":519,"o":"m 206 665 q 176 655 193 658 q 142 653 160 651 q 108 659 125 654 q 82 672 92 664 q 56 714 65 685 q 41 777 46 743 q 35 844 36 811 q 33 897 33 876 q 33 927 33 913 q 38 957 33 942 q 47 974 40 965 q 61 986 53 982 q 85 994 72 993 q 110 999 97 996 q 147 1001 126 1001 q 185 998 167 1001 q 219 986 204 994 q 242 963 235 978 q 250 926 249 944 q 250 888 251 907 q 248 856 250 879 q 244 807 246 833 q 240 758 242 781 q 236 726 238 735 q 227 692 233 710 q 206 665 221 674 m 474 663 q 444 653 461 656 q 410 651 428 650 q 376 657 392 651 q 349 671 360 663 q 323 713 332 683 q 308 776 314 742 q 302 842 303 810 q 301 896 301 875 q 301 926 301 911 q 306 954 301 940 q 329 985 311 976 q 353 992 340 990 q 378 997 365 994 q 415 999 394 999 q 453 996 435 1000 q 488 983 472 992 q 510 960 503 975 q 518 924 517 943 q 518 886 519 906 q 516 855 518 878 q 512 806 514 832 q 508 756 510 779 q 504 725 506 733 q 495 690 501 707 q 474 663 489 672 z "},"»":{"ha":551,"x_min":33,"x_max":519,"o":"m 206 665 q 176 655 193 658 q 142 653 160 651 q 108 659 125 654 q 82 672 92 664 q 56 714 65 685 q 41 777 46 743 q 35 844 36 811 q 33 897 33 876 q 33 927 33 913 q 38 957 33 942 q 47 974 40 965 q 61 986 53 982 q 85 994 72 993 q 110 999 97 996 q 147 1001 126 1001 q 185 998 167 1001 q 219 986 204 994 q 242 963 235 978 q 250 926 249 944 q 250 888 251 907 q 248 856 250 879 q 244 807 246 833 q 240 758 242 781 q 236 726 238 735 q 227 692 233 710 q 206 665 221 674 m 474 663 q 444 653 461 656 q 410 651 428 650 q 376 657 392 651 q 349 671 360 663 q 323 713 332 683 q 308 776 314 742 q 302 842 303 810 q 301 896 301 875 q 301 926 301 911 q 306 954 301 940 q 329 985 311 976 q 353 992 340 990 q 378 997 365 994 q 415 999 394 999 q 453 996 435 1000 q 488 983 472 992 q 510 960 503 975 q 518 924 517 943 q 518 886 519 906 q 516 855 518 878 q 512 806 514 832 q 508 756 510 779 q 504 725 506 733 q 495 690 501 707 q 474 663 489 672 z "},"„":{"ha":551,"x_min":33,"x_max":519,"o":"m 206 665 q 176 655 193 658 q 142 653 160 651 q 108 659 125 654 q 82 672 92 664 q 56 714 65 685 q 41 777 46 743 q 35 844 36 811 q 33 897 33 876 q 33 927 33 913 q 38 957 33 942 q 47 974 40 965 q 61 986 53 982 q 85 994 72 993 q 110 999 97 996 q 147 1001 126 1001 q 185 998 167 1001 q 219 986 204 994 q 242 963 235 978 q 250 926 249 944 q 250 888 251 907 q 248 856 250 879 q 244 807 246 833 q 240 758 242 781 q 236 726 238 735 q 227 692 233 710 q 206 665 221 674 m 474 663 q 444 653 461 656 q 410 651 428 650 q 376 657 392 651 q 349 671 360 663 q 323 713 332 683 q 308 776 314 742 q 302 842 303 810 q 301 896 301 875 q 301 926 301 911 q 306 954 301 940 q 329 985 311 976 q 353 992 340 990 q 378 997 365 994 q 415 999 394 999 q 453 996 435 1000 q 488 983 472 992 q 510 960 503 975 q 518 924 517 943 q 518 886 519 906 q 516 855 518 878 q 512 806 514 832 q 508 756 510 779 q 504 725 506 733 q 495 690 501 707 q 474 663 489 672 z "},"‟":{"ha":551,"x_min":33,"x_max":519,"o":"m 206 665 q 176 655 193 658 q 142 653 160 651 q 108 659 125 654 q 82 672 92 664 q 56 714 65 685 q 41 777 46 743 q 35 844 36 811 q 33 897 33 876 q 33 927 33 913 q 38 957 33 942 q 47 974 40 965 q 61 986 53 982 q 85 994 72 993 q 110 999 97 996 q 147 1001 126 1001 q 185 998 167 1001 q 219 986 204 994 q 242 963 235 978 q 250 926 249 944 q 250 888 251 907 q 248 856 250 879 q 244 807 246 833 q 240 758 242 781 q 236 726 238 735 q 227 692 233 710 q 206 665 221 674 m 474 663 q 444 653 461 656 q 410 651 428 650 q 376 657 392 651 q 349 671 360 663 q 323 713 332 683 q 308 776 314 742 q 302 842 303 810 q 301 896 301 875 q 301 926 301 911 q 306 954 301 940 q 329 985 311 976 q 353 992 340 990 q 378 997 365 994 q 415 999 394 999 q 453 996 435 1000 q 488 983 472 992 q 510 960 503 975 q 518 924 517 943 q 518 886 519 906 q 516 855 518 878 q 512 806 514 832 q 508 756 510 779 q 504 725 506 733 q 495 690 501 707 q 474 663 489 672 z "},"#":{"ha":925,"x_min":31,"x_max":896,"o":"m 639 10 q 557 3 597 -3 q 523 12 540 6 q 494 31 506 18 q 471 67 479 46 q 460 111 463 89 q 461 196 457 154 q 469 281 465 238 l 406 281 q 398 209 403 244 q 385 138 393 174 q 371 85 379 111 q 346 40 363 60 q 320 22 335 29 q 290 13 306 15 q 230 8 263 6 q 174 28 197 11 q 144 59 156 39 q 129 100 132 79 q 126 135 126 118 q 126 169 125 151 q 130 224 128 197 q 135 279 132 251 q 82 289 104 282 q 58 299 69 292 q 39 317 46 306 q 31 347 32 331 q 31 379 31 364 q 36 406 32 393 q 50 428 40 418 q 101 455 69 449 q 160 464 132 461 q 167 514 164 489 q 175 564 171 539 q 121 574 144 567 q 101 581 111 576 q 85 593 92 585 q 72 620 75 604 q 69 651 69 636 q 74 683 71 667 q 88 711 76 699 q 110 728 97 722 q 138 739 124 735 q 172 745 154 743 q 207 750 189 747 q 214 835 211 792 q 235 915 217 878 q 276 965 249 946 q 334 989 303 983 q 397 986 365 994 q 454 954 429 978 q 489 885 485 926 q 484 819 492 851 q 468 754 476 786 q 504 754 486 754 q 542 753 522 754 q 548 833 544 793 q 568 908 551 872 q 609 958 582 939 q 668 982 636 976 q 732 979 700 988 q 789 947 764 971 q 822 878 818 918 q 817 810 825 844 q 800 744 810 776 q 839 735 819 742 q 872 717 858 729 q 894 663 892 697 q 883 606 896 629 q 865 585 876 593 q 839 575 853 578 q 799 568 819 569 q 760 567 779 567 q 756 514 757 540 q 751 461 754 488 q 803 449 776 458 q 842 418 829 440 q 855 362 856 396 q 836 310 854 328 q 801 290 824 296 q 771 283 786 285 q 740 282 756 282 q 732 205 738 243 q 718 129 726 167 q 706 81 713 106 q 683 38 699 57 q 639 10 667 17 m 496 468 q 503 517 499 492 q 511 565 507 542 l 425 565 q 421 517 422 542 q 418 468 419 493 l 496 468 z "},"$":{"ha":719,"x_min":35,"x_max":682,"o":"m 394 -51 q 349 -53 374 -60 q 314 -28 325 -47 q 304 14 304 -8 q 306 57 304 36 q 224 62 265 57 q 144 81 183 67 q 84 116 110 92 q 47 171 58 140 q 38 234 35 201 q 64 296 42 267 q 143 346 94 335 q 189 351 165 353 q 235 344 213 349 q 273 338 254 342 q 310 338 292 333 q 335 358 326 340 q 336 392 343 375 q 323 408 332 401 q 304 421 314 415 q 256 444 281 435 q 205 463 231 453 q 155 483 179 472 q 111 513 131 494 q 71 569 83 538 q 58 636 58 601 q 72 706 58 671 q 108 768 85 740 q 192 833 144 808 q 292 872 240 857 q 288 914 289 893 q 290 956 288 935 q 294 975 292 965 q 303 993 296 985 q 325 1008 311 1004 q 365 1010 343 1015 q 400 989 388 1004 q 415 943 415 969 q 414 893 415 917 q 469 894 435 894 q 540 889 504 893 q 606 876 575 885 q 651 851 636 867 q 675 811 668 835 q 681 762 682 788 q 673 711 681 736 q 651 668 665 686 q 637 653 644 660 q 619 644 629 647 q 556 640 588 636 q 493 646 525 644 q 442 644 469 646 q 392 635 414 642 q 360 615 371 628 q 358 579 349 601 q 369 563 363 571 q 382 549 375 556 q 428 512 403 528 q 481 481 454 496 q 534 452 508 467 q 583 418 560 438 q 619 380 603 401 q 647 335 636 358 q 657 290 654 313 q 656 244 660 267 q 625 171 649 206 q 568 115 601 136 q 496 83 535 93 q 417 65 457 72 q 419 33 418 51 q 419 -2 421 15 q 413 -33 418 -19 q 394 -51 407 -46 z "},"%":{"ha":1322,"x_min":25,"x_max":1299,"o":"m 474 -28 q 417 -32 447 -39 q 361 -12 386 -25 q 331 7 346 -4 q 308 33 317 18 q 300 114 289 71 q 314 154 306 135 q 332 193 322 174 q 385 294 357 244 q 443 393 414 343 q 518 515 481 456 q 596 636 556 575 q 622 681 604 650 q 663 750 640 711 q 712 832 686 789 q 760 913 738 875 q 803 981 783 951 q 835 1022 824 1010 q 885 1052 857 1044 q 940 1055 913 1060 q 994 1033 968 1050 q 1036 990 1019 1017 q 1053 946 1049 971 q 1053 897 1058 921 q 1024 833 1044 863 q 982 775 1004 803 q 799 503 882 644 q 643 215 717 363 q 613 157 632 194 q 569 82 593 119 q 521 13 546 44 q 474 -28 496 -18 m 365 471 q 281 460 325 461 q 196 469 236 458 q 106 519 146 483 q 47 603 67 554 q 28 688 31 643 q 32 778 25 733 q 51 854 39 817 q 86 922 63 892 q 133 965 106 947 q 190 996 161 983 q 203 1000 194 997 q 222 1006 211 1003 q 240 1010 232 1008 q 253 1013 249 1013 q 328 1014 289 1019 q 400 993 367 1008 q 472 944 439 976 q 519 872 504 913 q 542 762 539 819 q 531 651 544 704 q 512 594 524 622 q 481 543 500 567 q 429 497 460 515 q 365 471 399 479 m 229 683 q 249 655 236 667 q 276 638 261 643 q 307 637 292 633 q 335 653 322 640 q 360 711 356 676 q 361 778 364 746 q 352 814 360 796 q 333 844 344 832 q 306 860 321 856 q 274 857 290 865 q 248 835 258 850 q 231 806 238 821 q 221 773 225 790 q 218 738 217 756 q 222 710 219 724 q 229 683 224 696 m 1119 11 q 1019 0 1071 0 q 924 19 968 0 q 850 69 882 38 q 801 143 818 101 q 783 224 786 182 q 785 307 779 267 q 802 390 789 349 q 840 463 815 431 q 888 506 860 488 q 944 536 915 524 q 957 540 949 538 q 976 546 965 543 q 994 551 986 549 q 1007 553 1003 553 q 1082 555 1043 560 q 1154 535 1121 550 q 1226 485 1193 517 q 1274 413 1258 453 q 1296 303 1293 360 q 1285 192 1299 246 q 1266 135 1278 164 q 1235 83 1254 107 q 1183 38 1214 56 q 1119 11 1153 19 m 983 224 q 1003 196 990 207 q 1030 179 1015 185 q 1060 176 1044 174 q 1088 192 1075 179 q 1107 226 1100 204 q 1116 271 1114 247 q 1115 317 1118 294 q 1106 356 1113 339 q 1073 394 1094 381 q 1028 397 1051 408 q 1002 376 1013 390 q 985 347 992 363 q 975 313 979 331 q 972 278 971 296 q 976 250 974 264 q 983 224 978 236 z "},"&":{"ha":1058,"x_min":36,"x_max":1038,"o":"m 886 -44 q 779 -28 829 -51 q 722 15 747 -12 q 686 74 697 42 q 598 11 644 39 q 500 -31 551 -17 q 365 -44 433 -50 q 233 -10 296 -37 q 150 44 189 11 q 85 117 111 76 q 39 247 46 178 q 42 322 36 285 q 60 394 47 360 q 86 449 71 422 q 124 496 101 476 q 158 522 139 511 q 199 539 178 532 q 134 617 157 572 q 108 710 111 661 q 121 808 106 760 q 172 896 136 856 q 220 940 193 921 q 278 974 247 960 q 408 1006 339 1001 q 542 996 476 1011 q 594 976 569 989 q 642 949 618 964 q 650 992 644 969 q 672 1028 656 1014 q 697 1038 681 1035 q 733 1044 714 1042 q 769 1045 751 1046 q 799 1043 788 1044 q 831 1029 815 1040 q 854 1001 847 1018 q 863 945 860 985 q 867 862 867 906 q 868 778 868 818 q 867 719 868 738 q 861 670 867 696 q 840 625 856 644 q 808 598 828 608 q 768 583 789 588 q 715 576 742 578 q 661 578 689 575 q 625 585 643 581 q 594 603 607 590 q 581 626 585 613 q 576 651 576 639 q 576 726 576 688 q 561 799 575 764 q 538 831 553 818 q 506 847 524 843 q 469 847 488 851 q 435 828 450 842 q 406 772 413 806 q 403 708 399 739 q 409 681 406 694 q 422 656 413 667 q 446 639 432 644 q 471 625 460 633 q 494 597 488 614 q 501 569 500 586 q 499 535 501 553 q 492 501 497 517 q 478 475 486 485 q 434 446 460 456 q 388 418 408 436 q 364 383 372 406 q 353 336 356 361 q 353 286 350 311 q 363 243 356 261 q 394 187 372 214 q 447 149 417 160 q 548 160 500 132 q 614 240 596 188 q 623 310 625 274 q 621 381 621 346 q 583 384 603 382 q 549 396 564 386 q 526 424 532 407 q 523 458 519 440 q 539 490 526 475 q 571 511 551 504 q 658 522 613 525 q 749 522 704 519 q 831 531 790 526 q 915 538 872 535 q 946 538 931 538 q 976 535 961 538 q 1019 508 1004 531 q 1035 460 1033 486 q 1025 408 1038 433 q 986 374 1013 383 q 934 367 961 364 q 881 375 907 371 q 876 300 878 338 q 878 225 875 263 q 881 192 878 211 q 889 153 883 172 q 903 120 894 135 q 924 100 911 106 q 951 93 936 93 q 978 86 965 93 q 996 42 1003 71 q 967 -7 989 13 q 930 -32 951 -22 q 886 -44 908 -42 z "},"'":{"ha":283,"x_min":33,"x_max":251,"o":"m 206 668 q 176 658 193 661 q 142 656 160 656 q 108 663 125 657 q 82 676 92 668 q 56 717 65 689 q 41 780 46 746 q 35 847 36 814 q 33 901 33 881 q 33 931 33 917 q 38 960 33 946 q 61 990 44 982 q 85 998 72 996 q 110 1003 97 1000 q 147 1005 126 1004 q 185 1001 167 1006 q 219 989 204 997 q 242 965 235 981 q 250 930 249 949 q 250 892 251 911 q 248 860 250 883 q 244 811 246 838 q 240 762 242 785 q 236 731 238 739 q 227 695 233 713 q 206 668 221 678 z "},"‚":{"ha":283,"x_min":33,"x_max":251,"o":"m 206 668 q 176 658 193 661 q 142 656 160 656 q 108 663 125 657 q 82 676 92 668 q 56 717 65 689 q 41 780 46 746 q 35 847 36 814 q 33 901 33 881 q 33 931 33 917 q 38 960 33 946 q 61 990 44 982 q 85 998 72 996 q 110 1003 97 1000 q 147 1005 126 1004 q 185 1001 167 1006 q 219 989 204 997 q 242 965 235 981 q 250 930 249 949 q 250 892 251 911 q 248 860 250 883 q 244 811 246 838 q 240 762 242 785 q 236 731 238 739 q 227 695 233 713 q 206 668 221 678 z "},"‛":{"ha":283,"x_min":33,"x_max":251,"o":"m 206 668 q 176 658 193 661 q 142 656 160 656 q 108 663 125 657 q 82 676 92 668 q 56 717 65 689 q 41 780 46 746 q 35 847 36 814 q 33 901 33 881 q 33 931 33 917 q 38 960 33 946 q 61 990 44 982 q 85 998 72 996 q 110 1003 97 1000 q 147 1005 126 1004 q 185 1001 167 1006 q 219 989 204 997 q 242 965 235 981 q 250 930 249 949 q 250 892 251 911 q 248 860 250 883 q 244 811 246 838 q 240 762 242 785 q 236 731 238 739 q 227 695 233 713 q 206 668 221 678 z "},"‹":{"ha":283,"x_min":33,"x_max":251,"o":"m 206 668 q 176 658 193 661 q 142 656 160 656 q 108 663 125 657 q 82 676 92 668 q 56 717 65 689 q 41 780 46 746 q 35 847 36 814 q 33 901 33 881 q 33 931 33 917 q 38 960 33 946 q 61 990 44 982 q 85 998 72 996 q 110 1003 97 1000 q 147 1005 126 1004 q 185 1001 167 1006 q 219 989 204 997 q 242 965 235 981 q 250 930 249 949 q 250 892 251 911 q 248 860 250 883 q 244 811 246 838 q 240 762 242 785 q 236 731 238 739 q 227 695 233 713 q 206 668 221 678 z "},"›":{"ha":283,"x_min":33,"x_max":251,"o":"m 206 668 q 176 658 193 661 q 142 656 160 656 q 108 663 125 657 q 82 676 92 668 q 56 717 65 689 q 41 780 46 746 q 35 847 36 814 q 33 901 33 881 q 33 931 33 917 q 38 960 33 946 q 61 990 44 982 q 85 998 72 996 q 110 1003 97 1000 q 147 1005 126 1004 q 185 1001 167 1006 q 219 989 204 997 q 242 965 235 981 q 250 930 249 949 q 250 892 251 911 q 248 860 250 883 q 244 811 246 838 q 240 762 242 785 q 236 731 238 739 q 227 695 233 713 q 206 668 221 678 z "},"(":{"ha":546,"x_min":40,"x_max":575,"o":"m 542 -47 q 548 -90 554 -69 q 525 -124 542 -110 q 484 -147 508 -139 q 435 -150 460 -154 q 322 -116 376 -142 q 224 -51 267 -90 q 125 74 164 1 q 67 225 86 147 q 42 408 43 314 q 60 592 40 501 q 116 753 79 675 q 201 901 153 831 q 260 978 229 942 q 328 1044 290 1014 q 379 1081 351 1064 q 439 1106 407 1097 q 495 1106 467 1113 q 546 1081 524 1100 q 565 1058 557 1071 q 575 1031 574 1046 q 570 1001 575 1015 q 558 975 565 988 q 523 924 543 947 q 485 874 503 900 q 409 729 439 807 q 365 571 379 651 q 353 411 353 492 q 372 253 354 331 q 397 172 382 211 q 436 97 413 132 q 491 26 461 60 q 542 -47 521 -7 z "},")":{"ha":538,"x_min":-33,"x_max":504,"o":"m 274 -43 q 212 -101 246 -74 q 142 -142 178 -128 q 70 -155 106 -157 q 4 -125 35 -153 q -12 -104 -6 -117 q -19 -78 -19 -92 q -14 -43 -21 -60 q 3 -11 -7 -26 q 38 39 19 15 q 72 89 56 63 q 136 224 111 153 q 172 369 161 296 q 183 535 185 451 q 160 697 181 618 q 128 790 149 744 q 76 874 108 836 q 55 899 69 881 q 24 938 40 917 q -6 978 7 958 q -24 1006 -19 997 q -22 1052 -33 1028 q 10 1089 -10 1076 q 69 1103 35 1104 q 141 1093 104 1103 q 212 1067 178 1083 q 269 1033 246 1050 q 358 947 319 997 q 425 842 397 897 q 489 622 474 739 q 485 393 504 506 q 459 289 476 340 q 419 189 442 238 q 354 67 390 126 q 274 -43 318 8 z "},"*":{"ha":501,"x_min":31,"x_max":472,"o":"m 285 556 q 251 547 272 547 q 217 557 229 547 q 203 580 207 564 q 198 615 199 596 q 198 652 197 633 q 199 682 199 671 q 160 660 179 671 q 122 642 142 650 q 99 633 111 636 q 75 633 86 631 q 44 656 57 638 q 33 692 31 674 q 41 706 35 699 q 56 721 47 714 q 74 734 65 728 q 89 744 83 740 q 115 760 103 753 q 142 776 128 768 q 115 792 132 782 q 82 815 99 803 q 51 840 65 828 q 35 864 38 853 q 40 897 31 879 q 63 924 50 915 q 92 928 75 932 q 124 917 110 924 q 161 896 143 907 q 197 874 179 885 q 197 913 197 893 q 197 951 196 932 q 203 984 199 967 q 224 1008 208 1001 q 254 1012 235 1013 q 283 1004 274 1011 q 300 982 294 997 q 308 948 306 967 q 312 910 311 929 q 313 878 313 890 q 353 903 333 892 q 397 924 374 915 q 420 929 408 928 q 442 924 432 931 q 463 897 453 915 q 468 864 472 879 q 451 840 465 853 q 421 815 438 828 q 388 792 404 803 q 361 776 371 782 q 383 763 368 772 q 415 742 399 753 q 446 722 432 732 q 464 704 460 711 q 468 681 471 694 q 456 654 465 667 q 435 636 447 642 q 413 632 424 631 q 390 638 401 633 q 375 644 386 639 q 351 656 364 650 q 328 669 339 663 q 313 678 317 675 q 312 660 313 672 q 310 633 311 647 q 309 607 310 619 q 307 590 308 594 q 299 570 304 579 q 285 556 293 561 z "},"+":{"ha":672,"x_min":25,"x_max":649,"o":"m 410 129 q 381 117 399 121 q 344 112 363 113 q 307 114 325 111 q 276 125 289 117 q 252 157 260 136 q 242 197 244 178 q 240 221 240 203 q 238 258 239 239 q 235 295 236 278 q 235 319 235 313 q 187 317 215 318 q 129 319 158 317 q 75 330 100 322 q 39 353 50 338 q 26 392 28 369 q 25 435 25 414 q 33 474 26 454 q 54 506 39 493 q 88 524 69 518 q 126 532 107 529 q 176 538 151 536 q 226 539 201 539 q 224 583 225 557 q 226 636 224 610 q 235 685 228 663 q 256 718 242 707 q 294 732 272 731 q 338 733 317 733 q 376 727 357 733 q 408 707 396 721 q 427 674 421 692 q 438 636 433 656 q 444 588 442 613 q 447 538 446 563 q 472 537 454 538 q 511 535 490 536 q 550 531 532 533 q 575 528 568 529 q 606 515 590 524 q 632 490 622 506 q 644 460 640 478 q 649 424 649 443 q 644 387 649 404 q 632 357 640 369 q 614 340 625 346 q 590 329 603 333 q 522 320 557 319 q 453 321 488 321 q 452 294 453 314 q 451 253 451 275 q 448 211 450 231 q 444 185 446 192 q 433 154 442 169 q 410 129 424 139 z "},",":{"ha":301,"x_min":21,"x_max":278,"o":"m 176 -172 q 142 -176 160 -183 q 121 -150 124 -169 q 122 -129 118 -139 q 132 -110 126 -119 q 156 -62 144 -86 q 174 -12 168 -39 q 103 -25 136 -33 q 49 9 69 -17 q 24 71 28 35 q 44 142 21 107 q 94 183 63 167 q 139 195 115 193 q 185 192 163 197 q 226 173 207 186 q 257 140 246 160 q 276 70 275 108 q 271 -3 278 32 q 229 -112 258 -64 q 206 -145 219 -129 q 176 -172 193 -161 z "},"-":{"ha":675,"x_min":26,"x_max":650,"o":"m 274 321 q 217 319 251 321 q 147 318 182 317 q 83 327 113 319 q 40 353 53 335 q 28 392 29 369 q 26 435 26 414 q 34 474 28 454 q 56 506 40 493 q 99 526 75 521 q 146 535 122 532 q 198 538 164 536 q 274 540 232 540 q 362 540 315 540 q 450 539 408 540 q 525 535 492 538 q 576 528 558 532 q 608 515 592 524 q 633 490 624 506 q 646 460 642 478 q 650 424 650 443 q 646 387 650 404 q 633 357 642 369 q 615 340 626 346 q 592 329 604 333 q 528 323 574 325 q 433 320 483 321 q 337 320 382 319 q 274 321 292 321 z "},".":{"ha":292,"x_min":26,"x_max":269,"o":"m 221 31 q 174 5 200 11 q 124 3 149 -1 q 77 22 99 7 q 43 63 56 38 q 28 138 26 96 q 50 211 31 181 q 101 253 68 239 q 154 260 128 263 q 203 246 181 258 q 241 213 225 233 q 263 164 257 192 q 258 92 269 129 q 221 31 247 54 z "},"/":{"ha":563,"x_min":11,"x_max":581,"o":"m 211 -61 q 172 -74 194 -71 q 127 -74 150 -76 q 83 -63 104 -71 q 47 -43 61 -56 q 19 6 26 -24 q 15 64 11 36 q 26 120 18 92 q 40 176 33 149 q 110 399 72 289 q 190 617 149 508 q 203 655 194 628 q 224 717 213 682 q 248 792 235 753 q 272 867 261 832 q 292 930 283 903 q 306 968 301 957 q 324 1017 314 993 q 351 1061 333 1042 q 394 1091 368 1081 q 444 1100 419 1101 q 499 1087 474 1099 q 543 1055 525 1075 q 571 1009 561 1035 q 576 954 581 983 q 556 882 572 917 q 525 813 540 847 q 412 517 460 667 q 325 213 364 367 q 309 147 319 188 q 284 64 299 106 q 251 -13 269 22 q 211 -61 232 -49 z "},":":{"ha":324,"x_min":38,"x_max":292,"o":"m 243 519 q 197 494 222 500 q 146 492 171 488 q 99 511 121 496 q 65 551 78 526 q 51 626 49 585 q 72 700 53 668 q 125 742 93 731 q 176 749 150 751 q 225 735 203 747 q 263 701 247 722 q 285 653 279 681 q 281 581 292 618 q 243 519 269 543 m 232 76 q 185 51 211 57 q 135 49 160 44 q 88 68 110 53 q 54 108 67 83 q 40 184 38 142 q 61 258 42 226 q 113 299 81 286 q 165 306 139 308 q 214 292 192 304 q 252 258 236 279 q 274 211 268 238 q 269 138 281 176 q 232 76 258 100 z "},";":{"ha":328,"x_min":31,"x_max":297,"o":"m 249 519 q 201 494 228 500 q 150 492 175 488 q 103 511 125 496 q 69 551 82 526 q 55 626 53 585 q 78 700 57 668 q 129 742 96 728 q 182 749 156 751 q 231 735 208 747 q 269 701 253 722 q 290 653 285 681 q 286 581 297 618 q 249 519 275 543 m 186 -172 q 151 -176 169 -183 q 131 -150 133 -169 q 132 -129 128 -139 q 142 -110 136 -119 q 166 -62 154 -86 q 183 -12 178 -39 q 113 -25 146 -33 q 58 9 79 -17 q 34 71 38 35 q 54 142 31 107 q 104 183 72 167 q 149 195 125 193 q 194 192 172 197 q 236 173 217 186 q 267 140 256 160 q 286 70 285 108 q 281 -3 288 32 q 239 -112 268 -64 q 216 -145 229 -129 q 186 -172 203 -161 z "},"<":{"ha":581,"x_min":24,"x_max":551,"o":"m 425 92 q 369 99 397 89 q 315 125 340 110 q 229 174 271 149 q 147 228 188 200 q 90 273 118 249 q 44 329 61 297 q 27 382 31 353 q 32 439 24 411 q 60 492 40 468 q 103 535 79 517 l 115 547 q 171 592 142 571 q 229 632 200 613 q 285 669 257 651 q 344 703 314 688 q 394 720 368 714 q 446 724 419 726 q 476 710 461 721 q 506 685 492 700 q 529 654 519 671 q 543 622 539 638 q 536 560 551 590 q 476 491 517 519 q 396 443 436 463 q 339 417 368 428 q 282 393 310 407 q 325 368 304 381 q 369 344 346 356 q 434 311 401 328 q 494 269 467 294 q 522 224 518 249 q 519 179 526 201 q 499 138 513 157 q 467 107 486 119 q 425 92 447 94 z "},"=":{"ha":700,"x_min":38,"x_max":664,"o":"m 285 476 q 228 475 263 476 q 158 475 193 474 q 94 484 124 476 q 51 510 64 492 q 39 549 40 526 q 38 590 38 571 q 45 629 39 610 q 67 661 51 649 q 110 682 86 676 q 157 690 133 688 q 209 694 175 692 q 285 696 243 696 q 373 696 326 696 q 461 694 419 696 q 536 690 503 693 q 588 683 569 688 q 619 670 603 679 q 644 647 635 661 q 657 617 653 635 q 661 580 661 599 q 657 543 661 561 q 644 513 653 525 q 626 495 638 501 q 603 486 615 489 q 540 478 585 481 q 444 476 494 476 q 348 476 393 476 q 285 476 303 476 m 288 186 q 195 183 242 185 q 104 192 149 181 q 75 202 89 194 q 53 222 61 210 q 41 260 42 239 q 42 300 40 281 q 49 339 43 319 q 71 371 56 358 q 113 392 89 386 q 161 400 138 397 q 212 403 178 401 q 288 406 246 406 q 376 406 331 406 q 464 404 422 406 q 540 400 506 403 q 590 393 574 397 q 622 380 607 389 q 647 357 638 371 q 660 326 656 344 q 664 290 664 308 q 660 253 664 271 q 649 222 657 235 q 630 205 642 211 q 607 196 618 199 q 544 188 589 190 q 448 186 499 186 q 351 186 397 186 q 288 186 306 186 z "},">":{"ha":581,"x_min":33,"x_max":556,"o":"m 247 115 q 206 97 228 104 q 160 92 183 89 q 117 105 136 93 q 83 135 97 117 q 61 177 68 154 q 58 224 54 200 q 75 258 63 244 q 103 284 88 274 q 136 304 119 294 q 167 322 143 308 q 217 349 190 335 q 268 376 244 364 q 299 393 292 389 q 267 406 283 400 q 235 419 250 413 q 159 456 196 436 q 90 503 122 475 q 51 548 69 522 q 35 601 33 574 q 47 646 35 625 q 74 683 58 667 q 101 709 86 697 q 135 724 117 721 q 190 719 163 726 q 242 700 217 711 q 311 660 278 683 q 378 615 344 638 q 429 578 404 597 q 476 536 454 558 q 482 532 481 532 q 522 490 504 514 q 549 439 540 467 q 554 390 556 415 q 543 340 553 364 q 517 299 532 318 q 482 264 501 281 q 438 231 461 246 q 392 200 415 215 q 320 156 356 178 q 247 115 285 135 z "},"?":{"ha":729,"x_min":24,"x_max":713,"o":"m 375 290 q 335 274 360 279 q 284 266 311 268 q 231 267 257 264 q 189 276 206 269 q 149 314 165 289 q 135 352 139 332 q 131 392 132 372 q 130 440 129 410 q 135 501 131 469 q 146 560 139 532 q 165 600 153 588 q 200 622 179 615 q 240 631 221 628 q 309 640 275 635 q 372 664 343 646 q 417 710 401 681 q 413 768 433 740 q 376 790 399 786 q 337 794 357 796 q 297 789 317 792 q 224 772 260 783 q 151 751 188 760 q 122 746 136 747 q 93 749 107 744 q 49 790 63 760 q 34 828 39 808 q 26 869 29 849 q 30 908 24 889 q 49 942 36 928 q 117 981 71 967 q 215 1002 163 996 q 319 1008 268 1008 q 404 1006 371 1008 q 433 1002 419 1003 q 461 999 446 1001 q 561 961 514 989 q 643 892 608 933 q 695 801 678 851 q 707 697 713 751 q 688 630 703 663 q 651 572 674 597 q 609 535 632 551 q 561 507 586 519 q 477 474 521 486 q 389 449 433 461 q 393 393 386 421 q 400 338 400 365 q 375 290 400 306 m 313 -28 q 231 -21 272 -32 q 166 26 188 -10 q 156 106 144 63 q 190 160 163 140 q 240 181 213 175 q 294 186 267 188 q 347 177 321 185 q 392 150 374 169 q 414 101 410 131 q 411 46 418 72 q 374 -10 404 10 q 344 -22 360 -18 q 313 -28 328 -26 z "},"@":{"ha":1153,"x_min":38,"x_max":1121,"o":"m 861 -65 q 691 -120 781 -103 q 513 -132 601 -137 q 413 -118 463 -129 q 318 -87 364 -107 q 182 6 240 -53 q 123 81 149 40 q 82 167 97 122 q 44 351 50 256 q 51 540 38 447 q 87 666 61 604 q 153 779 113 728 q 265 885 200 840 q 404 957 331 931 q 533 988 467 979 q 667 990 600 997 q 799 963 733 985 q 919 901 864 940 q 1054 751 1004 842 q 1118 521 1114 643 q 1108 404 1121 463 q 1065 297 1096 346 q 988 216 1036 250 q 885 174 939 182 q 819 172 853 168 q 756 188 786 175 q 709 215 731 197 q 675 256 688 232 q 610 201 653 221 q 528 181 568 182 q 470 189 499 179 q 419 217 442 199 q 374 268 392 238 q 347 331 357 299 q 330 432 332 379 q 339 535 328 485 q 363 608 346 572 q 406 675 379 644 q 435 703 419 690 q 471 724 451 717 q 522 735 493 733 q 577 731 550 738 q 628 711 604 725 q 665 676 651 697 q 708 712 681 701 q 764 719 735 722 q 818 701 793 717 q 854 660 843 686 q 860 632 860 647 q 855 573 860 603 q 843 514 850 543 q 829 455 836 485 q 819 396 822 425 q 819 379 819 389 q 819 358 818 369 q 822 338 819 347 q 829 325 824 329 q 853 322 838 317 q 878 338 867 326 q 896 363 889 349 q 915 408 908 383 q 924 456 921 432 q 926 576 931 519 q 903 682 924 629 q 846 775 882 735 q 776 829 814 811 q 669 855 728 854 q 557 839 610 856 q 443 780 496 819 q 354 688 390 740 q 288 514 303 611 q 296 328 274 417 q 353 199 313 257 q 428 118 383 153 q 524 65 472 83 q 664 47 590 43 q 804 78 738 51 q 843 90 824 85 q 882 93 863 94 q 912 85 897 92 q 935 64 926 78 q 944 26 946 44 q 930 -10 942 7 q 900 -42 918 -28 q 861 -65 882 -56 m 575 361 q 590 347 581 353 q 608 343 599 342 q 627 353 619 344 q 640 372 635 363 q 651 410 647 388 q 656 458 656 433 q 653 504 657 482 q 639 540 649 526 q 624 555 633 549 q 604 561 615 561 q 583 551 593 560 q 567 532 572 543 q 555 493 558 517 q 552 445 551 469 q 558 398 553 421 q 575 361 564 375 z "},"A":{"ha":868,"x_min":3,"x_max":846,"o":"m 783 0 q 715 -19 751 -14 q 644 -17 679 -24 q 603 -3 624 -12 q 568 22 583 7 q 548 53 556 36 q 535 86 540 69 q 517 160 524 122 q 503 238 510 199 q 362 238 432 238 q 221 239 292 238 q 203 167 211 203 q 189 96 196 132 q 181 62 186 78 q 164 31 175 46 q 149 17 157 24 q 132 7 142 10 q 85 0 108 -1 q 44 11 63 1 q 14 38 25 21 q 4 81 3 56 q 8 110 6 96 q 14 140 11 125 q 33 208 22 175 q 57 276 44 242 q 76 334 63 293 q 108 429 90 375 q 144 543 125 483 q 182 657 164 603 q 213 752 200 711 q 232 810 226 793 q 276 910 250 861 q 344 990 303 958 q 409 1022 372 1013 q 482 1031 446 1032 q 553 1019 518 1029 q 615 988 588 1008 q 656 941 639 968 q 685 886 674 914 q 742 726 718 808 q 782 560 765 644 q 811 392 799 476 q 835 222 824 307 q 839 185 836 210 q 844 133 842 160 q 845 81 846 106 q 839 46 844 57 q 816 18 832 29 q 783 0 800 7 m 290 521 q 276 458 283 489 q 260 394 268 426 q 303 397 271 396 q 371 397 335 397 q 439 397 407 397 q 482 397 471 397 q 470 497 475 447 q 458 597 465 547 q 447 669 454 633 q 428 742 439 706 q 422 758 425 749 q 413 777 418 768 q 403 793 408 786 q 390 801 397 800 q 372 794 381 804 q 360 774 364 783 q 352 758 356 767 q 346 742 349 750 q 315 633 326 689 q 290 521 304 576 z "},"B":{"ha":888,"x_min":39,"x_max":863,"o":"m 665 -18 q 594 -34 631 -31 q 521 -35 557 -37 q 435 -24 478 -32 q 353 0 393 -15 q 329 11 342 4 q 288 -12 311 -4 q 240 -22 264 -19 q 178 -20 210 -25 q 119 0 146 -15 q 91 26 103 10 q 72 60 79 42 q 67 94 68 76 q 65 128 65 111 q 67 163 65 136 q 69 222 68 190 q 73 280 71 253 q 75 315 75 307 q 78 514 79 415 q 64 713 76 613 q 53 779 60 746 q 42 846 46 813 q 41 899 39 872 q 56 949 43 925 q 80 978 64 967 q 114 997 96 990 q 174 1010 143 1008 q 236 1008 206 1011 q 271 1001 254 1006 q 303 989 288 997 q 342 944 331 975 q 385 981 363 968 q 458 1010 418 1001 q 539 1019 499 1019 q 632 1009 585 1019 q 715 971 679 999 q 783 881 761 935 q 809 778 806 832 q 806 671 813 724 q 791 617 801 643 q 761 569 781 590 q 731 538 747 553 q 699 511 715 524 q 770 473 739 501 q 822 406 801 444 q 853 323 843 367 q 860 238 863 279 q 833 136 856 186 q 774 49 810 86 q 724 9 751 25 q 665 -18 696 -7 m 375 542 q 426 540 400 539 q 475 553 451 542 q 508 577 494 561 q 533 613 522 593 q 559 678 551 643 q 564 750 567 714 q 556 790 563 768 q 538 832 549 811 q 513 869 528 853 q 482 890 499 885 q 447 891 465 896 q 415 875 429 886 q 378 813 389 856 q 365 722 367 771 q 368 624 364 672 q 375 542 372 575 m 439 78 q 536 114 497 67 q 565 169 554 136 q 578 238 575 201 q 574 308 581 274 q 554 367 568 342 q 531 393 546 382 q 501 411 517 404 q 435 422 469 424 q 367 418 400 419 q 365 370 367 407 q 363 292 364 333 q 362 215 363 251 q 361 167 361 178 q 363 144 361 156 q 371 124 364 133 q 401 93 382 106 q 439 78 419 81 z "},"C":{"ha":771,"x_min":29,"x_max":754,"o":"m 544 -12 q 397 -28 474 -35 q 253 10 319 -22 q 192 47 221 25 q 140 97 164 69 q 93 172 113 132 q 60 253 74 211 q 32 424 35 336 q 40 596 29 511 q 69 728 50 663 q 126 849 88 794 q 228 950 168 908 q 356 1008 289 992 q 493 1016 424 1025 q 624 965 563 1007 q 676 919 651 946 q 717 861 701 893 q 744 749 744 808 q 722 701 744 719 q 669 690 699 683 q 636 718 649 697 q 613 772 624 744 q 583 822 601 799 q 567 839 576 831 q 547 851 558 847 q 513 855 531 858 q 480 842 496 851 q 451 817 464 832 q 429 786 438 803 q 396 683 404 738 q 381 574 388 628 q 374 388 369 482 q 413 207 379 294 q 433 170 419 188 q 465 139 447 153 q 502 118 482 125 q 543 115 522 111 q 599 154 578 122 q 624 203 614 178 q 654 249 633 229 q 679 260 664 258 q 709 256 694 261 q 735 242 724 251 q 750 218 747 232 q 744 168 754 194 q 716 116 733 142 q 677 68 699 90 q 638 32 656 46 q 592 6 615 17 q 544 -12 568 -4 z "},"D":{"ha":981,"x_min":43,"x_max":963,"o":"m 279 -17 q 226 -28 256 -26 q 170 -25 197 -31 q 119 -6 143 -19 q 82 29 96 8 q 65 94 69 50 q 61 189 61 139 q 64 285 61 239 q 67 354 67 331 q 67 563 68 458 q 64 771 67 667 q 53 856 63 814 q 49 940 43 897 q 56 965 51 953 q 69 988 60 978 q 101 1006 83 1000 q 138 1015 119 1013 q 246 1014 194 1026 q 293 990 276 1007 q 313 964 306 979 q 325 933 319 949 q 462 987 392 963 q 606 1008 532 1011 q 706 989 656 1007 q 794 939 756 971 q 883 831 847 894 q 936 700 918 767 q 954 490 963 599 q 911 283 946 382 q 842 153 888 214 q 735 53 796 93 q 654 10 697 26 q 567 -12 611 -7 q 447 -6 507 -21 q 392 15 419 1 q 344 50 365 29 q 317 11 333 29 q 279 -17 300 -7 m 385 140 q 407 133 394 133 q 431 135 419 132 q 473 152 453 140 q 510 179 493 164 q 572 247 546 208 q 615 331 599 286 q 652 508 647 415 q 640 690 657 601 q 624 747 633 718 q 599 800 615 776 q 531 861 572 839 q 441 874 488 882 q 372 825 394 867 q 359 783 361 806 q 360 738 357 760 q 372 458 372 597 q 372 176 372 318 q 375 157 372 167 q 385 140 378 147 z "},"E":{"ha":747,"x_min":42,"x_max":724,"o":"m 418 -11 q 319 -8 369 -15 q 222 18 268 -1 q 157 60 186 33 q 108 121 128 88 q 72 215 82 164 q 56 315 61 265 q 55 328 56 318 q 53 350 54 339 q 52 372 53 361 q 51 385 51 382 q 42 553 42 468 q 50 721 43 638 q 63 834 56 778 q 94 942 71 890 q 110 969 101 956 q 135 989 119 982 q 185 999 150 994 q 260 1005 221 1003 q 336 1008 300 1007 q 389 1008 372 1008 q 412 1008 394 1008 q 449 1007 429 1007 q 485 1007 468 1007 q 508 1007 503 1007 q 526 1008 513 1007 q 556 1008 540 1008 q 586 1009 572 1008 q 604 1010 600 1010 q 630 1008 617 1010 q 656 1003 643 1007 q 694 975 676 997 q 708 945 704 961 q 715 913 713 929 q 719 865 719 889 q 714 818 718 842 q 703 783 711 800 q 679 756 694 767 q 638 738 661 742 q 590 735 614 733 q 479 749 533 736 q 368 765 425 763 q 345 765 357 765 q 322 760 333 764 q 290 714 296 749 q 286 651 283 679 q 290 625 286 642 q 300 603 293 608 q 326 599 307 597 q 356 603 346 601 q 403 607 379 606 q 451 608 428 608 q 481 607 467 608 q 507 600 494 606 q 523 590 515 597 q 538 576 531 583 q 548 544 546 564 q 549 503 550 525 q 544 462 549 482 q 532 428 539 442 q 507 405 524 413 q 474 396 490 397 q 423 397 449 393 q 371 404 397 400 q 354 406 364 404 q 333 410 344 408 q 313 410 322 411 q 299 406 303 410 q 290 392 292 400 q 288 376 289 385 q 288 349 286 365 q 294 316 290 333 q 303 283 297 299 q 315 260 308 268 q 342 248 325 250 q 379 248 360 246 q 418 255 399 250 q 450 263 438 260 q 531 284 490 274 q 614 300 572 294 q 642 302 628 301 q 669 297 656 303 q 696 279 686 293 q 706 256 703 268 q 713 232 710 244 q 721 139 724 186 q 717 108 721 124 q 703 79 713 92 q 665 46 692 60 q 624 28 646 35 q 579 15 601 22 q 499 -1 539 6 q 418 -11 458 -8 z "},"F":{"ha":726,"x_min":50,"x_max":721,"o":"m 296 -3 q 245 -19 272 -15 q 190 -22 218 -22 q 148 -20 169 -22 q 107 -8 126 -18 q 90 5 96 -4 q 79 24 83 14 q 69 55 72 39 q 64 88 67 71 q 56 164 58 125 q 54 242 54 203 q 51 494 51 368 q 65 747 50 621 q 77 834 69 790 q 100 918 85 878 q 151 1004 117 964 q 177 1024 163 1017 q 207 1036 192 1032 q 256 1044 231 1043 q 307 1046 282 1044 q 431 1047 369 1046 q 554 1036 492 1047 q 574 1032 560 1035 q 603 1026 588 1029 q 634 1021 619 1024 q 653 1017 649 1018 q 689 998 672 1010 q 711 968 706 986 q 719 899 721 935 q 711 831 718 864 q 699 793 707 811 q 676 764 692 775 q 626 751 660 751 q 556 755 593 750 q 485 767 519 760 q 429 776 450 774 q 392 781 411 779 q 357 771 372 782 q 333 729 342 760 q 324 679 324 699 q 325 650 324 668 q 336 626 326 632 q 348 624 340 624 q 365 624 356 624 q 382 625 374 624 q 394 626 390 626 q 451 632 422 629 q 508 633 481 635 q 568 625 538 632 q 617 594 599 618 q 631 569 626 583 q 639 540 636 556 q 642 491 643 517 q 635 442 642 465 q 626 417 632 429 q 608 396 619 404 q 584 385 597 388 q 557 382 571 382 q 512 386 542 382 q 449 393 482 390 q 386 395 415 396 q 344 388 357 394 q 333 373 336 383 q 327 350 329 363 q 324 325 325 338 q 324 304 324 313 q 325 197 321 251 q 332 90 329 143 q 332 58 333 74 q 324 26 331 42 q 312 10 319 17 q 296 -3 304 3 z "},"G":{"ha":807,"x_min":26,"x_max":776,"o":"m 613 14 q 501 -26 561 -15 q 383 -29 442 -36 q 294 -8 339 -24 q 213 33 250 7 q 126 119 164 69 q 68 228 89 169 q 33 394 40 307 q 36 565 26 481 q 56 685 43 625 q 97 799 69 744 q 174 907 126 860 q 285 983 222 954 q 397 1017 338 1008 q 514 1013 457 1025 q 606 976 563 1001 q 681 913 650 950 q 726 838 708 879 q 744 753 743 796 q 733 712 746 728 q 701 690 719 696 q 665 692 683 685 q 636 721 646 699 q 606 788 621 753 q 561 843 590 822 q 524 856 543 856 q 487 846 504 856 q 453 819 469 836 q 428 782 438 803 q 396 682 404 735 q 381 576 388 629 q 374 391 369 485 q 411 210 378 297 q 460 139 426 168 q 490 121 474 128 q 522 113 506 114 q 554 117 538 111 q 582 135 571 124 q 627 209 614 163 q 632 297 640 256 q 590 294 611 299 q 549 290 569 290 q 521 301 532 290 q 502 326 510 311 q 490 358 494 340 q 485 390 486 375 q 483 424 483 404 q 485 464 483 444 q 494 500 488 483 q 513 524 500 517 q 543 532 522 529 q 588 535 564 535 q 634 536 613 536 q 667 536 656 536 q 710 532 689 535 q 749 515 732 529 q 766 489 761 506 q 774 456 771 472 q 776 426 775 447 q 776 383 776 406 q 776 339 776 360 q 775 310 775 318 q 758 210 771 260 q 721 118 746 161 q 673 60 701 86 q 613 14 644 33 z "},"H":{"ha":943,"x_min":43,"x_max":888,"o":"m 279 -25 q 217 -30 249 -32 q 156 -21 186 -28 q 119 -6 136 -15 q 89 18 101 3 q 71 64 74 39 q 69 125 68 94 q 71 188 69 156 q 72 244 71 204 q 72 335 72 283 q 72 446 72 388 q 72 556 72 504 q 72 648 72 608 q 72 704 72 688 l 72 707 q 57 797 65 751 q 44 886 49 842 q 43 923 43 904 q 53 957 43 942 q 83 983 64 975 q 122 997 103 990 q 179 1008 146 1004 q 247 1010 213 1013 q 310 999 281 1008 q 356 972 339 990 q 372 940 367 958 q 378 903 376 921 q 378 856 379 879 q 376 810 378 833 q 372 565 372 686 q 372 561 372 563 q 372 557 371 560 q 374 537 375 553 q 374 515 374 521 l 469 515 q 525 513 497 515 q 581 513 553 511 q 581 551 581 522 q 582 612 582 579 q 581 672 582 644 q 579 711 581 700 q 565 801 572 756 q 553 890 557 846 q 551 927 550 908 q 561 961 551 946 q 592 987 572 979 q 631 1001 611 994 q 688 1013 654 1008 q 754 1015 721 1017 q 817 1003 788 1013 q 863 976 846 994 q 880 944 875 963 q 886 907 885 925 q 887 860 888 883 q 885 814 886 838 q 881 692 882 751 q 881 569 881 632 q 880 565 881 567 q 881 560 879 563 q 881 515 881 546 q 882 446 882 485 q 883 363 882 407 q 883 280 883 319 q 883 210 883 240 q 882 167 883 179 q 877 108 879 138 q 868 51 875 79 q 856 24 864 38 q 838 1 849 11 q 788 -21 818 -14 q 725 -26 757 -28 q 664 -17 693 -24 q 626 -2 644 -11 q 597 22 608 7 q 579 68 582 43 q 578 122 578 82 q 578 206 578 161 q 580 290 579 250 q 581 344 581 331 q 478 349 529 347 q 375 347 426 350 q 376 247 376 297 q 374 144 376 196 q 369 96 372 121 q 360 47 367 71 q 348 20 356 33 q 329 -3 340 7 q 279 -25 310 -18 z "},"I":{"ha":435,"x_min":43,"x_max":379,"o":"m 279 -21 q 217 -26 249 -28 q 156 -17 186 -24 q 119 -2 136 -11 q 89 22 101 7 q 71 68 74 43 q 69 129 68 99 q 71 192 69 160 q 72 248 71 208 q 72 340 72 288 q 72 450 72 392 q 72 560 72 508 q 72 652 72 613 q 72 708 72 692 l 72 711 q 57 801 65 756 q 44 890 49 846 q 43 927 43 908 q 53 961 43 946 q 83 987 64 979 q 122 1001 103 994 q 179 1013 146 1008 q 247 1015 213 1017 q 310 1003 281 1013 q 356 976 339 994 q 372 944 367 963 q 378 907 376 925 q 378 860 379 883 q 376 814 378 838 q 372 569 372 690 q 372 565 372 567 q 372 560 371 563 q 373 515 372 546 q 374 446 374 485 q 375 363 375 407 q 375 280 375 319 q 375 210 375 240 q 374 167 375 179 q 369 108 371 138 q 360 51 368 79 q 348 24 356 38 q 329 1 340 11 q 279 -21 310 -14 z "},"J":{"ha":763,"x_min":14,"x_max":721,"o":"m 504 -18 q 383 -49 447 -44 q 256 -40 318 -53 q 167 -13 211 -32 q 86 33 124 6 q 52 65 68 49 q 26 104 36 82 q 14 161 14 131 q 23 221 14 192 q 50 275 32 250 q 93 317 68 300 q 127 334 108 328 q 165 339 146 340 q 222 322 194 336 q 274 293 249 308 q 341 263 306 276 q 413 253 376 250 q 451 265 432 256 q 483 292 471 275 q 505 340 499 313 q 514 394 511 367 q 506 560 521 478 q 482 725 492 642 q 404 713 454 722 q 300 697 354 704 q 197 690 246 690 q 125 704 149 689 q 99 734 108 714 q 83 778 89 754 q 76 828 78 803 q 78 871 75 853 q 95 922 82 897 q 129 963 108 947 q 199 995 161 986 q 274 1011 236 1004 q 440 1028 357 1024 q 501 1028 471 1029 q 564 1021 532 1026 q 597 1013 581 1018 q 626 999 613 1008 q 653 970 643 988 q 671 933 664 953 q 693 856 686 896 q 706 775 700 815 q 714 664 713 719 q 718 553 715 608 q 720 432 719 492 q 714 311 721 372 q 692 207 707 258 q 650 111 678 156 q 586 36 624 71 q 504 -18 549 1 z "},"K":{"ha":906,"x_min":32,"x_max":903,"o":"m 271 -21 q 224 -26 250 -25 q 172 -22 197 -26 q 124 -8 146 -18 q 92 21 101 3 q 78 63 81 40 q 79 110 76 86 q 89 385 89 247 q 65 660 89 524 q 53 726 58 693 q 42 790 47 758 q 35 853 38 822 q 39 915 32 885 q 48 944 42 931 q 65 968 54 957 q 108 992 81 982 q 165 1010 135 1003 q 226 1018 196 1017 q 275 1015 256 1019 q 323 987 301 1008 q 353 940 344 965 q 356 918 356 929 q 357 896 357 907 q 357 847 357 883 q 356 769 357 811 q 354 692 356 728 q 353 643 353 656 q 486 820 415 735 q 644 974 557 906 q 693 1001 667 989 q 747 1010 719 1014 q 789 990 771 1007 q 819 953 807 972 q 831 928 826 942 q 833 900 836 914 q 814 865 829 881 q 783 838 799 850 q 728 797 756 817 q 676 754 701 778 q 588 669 629 714 q 503 581 547 624 q 552 528 526 553 q 603 478 578 503 q 635 447 613 468 q 687 398 658 425 q 747 340 715 371 q 807 282 779 310 q 856 231 835 254 q 886 197 878 208 q 896 182 892 190 q 901 164 900 174 q 892 126 903 146 q 863 88 881 107 q 826 53 846 69 q 793 26 807 36 q 756 7 776 15 q 715 0 736 -1 q 675 12 694 3 q 640 33 656 21 q 570 101 601 64 q 511 176 539 138 q 435 282 472 229 q 367 392 399 335 q 368 360 367 383 q 371 308 369 336 q 374 257 372 281 q 375 225 375 233 q 376 147 378 186 q 365 68 375 107 q 353 34 361 51 q 331 6 344 17 q 303 -12 319 -6 q 271 -21 288 -18 z "},"L":{"ha":608,"x_min":50,"x_max":617,"o":"m 467 3 q 360 -8 414 -4 q 254 -10 307 -12 q 201 -3 228 -7 q 150 15 174 0 q 119 42 132 26 q 97 78 107 58 q 68 166 76 119 q 56 260 60 213 q 50 383 50 322 q 51 507 50 444 q 56 637 54 572 q 64 767 58 701 q 65 768 64 768 q 65 769 65 768 q 71 865 67 818 q 85 958 75 913 q 96 1001 88 979 q 124 1033 104 1024 q 164 1043 138 1040 q 219 1046 190 1046 q 275 1043 249 1046 q 317 1036 301 1040 q 347 1026 332 1032 q 372 1011 361 1021 q 394 972 390 996 q 394 942 396 964 q 391 894 393 919 q 387 847 389 869 q 383 817 385 825 q 367 500 371 658 q 364 383 365 442 q 369 267 363 325 q 374 238 371 254 q 382 208 376 222 q 396 181 388 193 q 417 167 404 169 q 431 165 424 165 q 444 165 438 165 q 503 171 474 165 q 563 179 533 176 q 579 178 571 179 q 594 171 588 176 q 614 124 611 156 q 610 71 617 92 q 593 49 604 58 q 571 32 582 39 q 521 13 547 18 q 467 3 494 7 z "},"M":{"ha":1349,"x_min":35,"x_max":1324,"o":"m 268 15 q 246 -4 260 4 q 215 -18 232 -12 q 181 -24 199 -24 q 150 -22 164 -25 q 107 1 124 -15 q 79 54 86 22 q 44 309 53 181 q 46 565 35 438 q 62 686 50 626 q 96 803 74 746 q 135 878 111 842 q 190 939 158 914 q 274 976 225 968 q 343 973 308 981 q 408 949 378 965 q 465 903 440 931 q 507 843 489 875 q 572 678 551 765 q 615 503 592 590 q 704 719 651 618 q 794 840 738 786 q 917 925 850 893 q 976 947 944 939 q 1039 957 1007 956 q 1099 953 1069 960 q 1156 931 1129 946 q 1206 891 1183 915 q 1243 839 1228 867 q 1287 733 1271 789 q 1310 619 1303 678 q 1308 394 1324 507 q 1258 175 1292 282 q 1230 92 1246 133 q 1182 21 1214 50 q 1104 -17 1151 -8 q 1053 -18 1081 -21 q 1002 -5 1026 -15 q 958 22 978 6 q 929 61 938 38 q 919 119 918 89 q 926 179 919 150 q 963 342 942 263 q 1004 504 985 422 q 1014 585 1014 542 q 1013 614 1014 599 q 1007 642 1011 629 q 994 665 1003 656 q 971 674 985 674 q 937 660 951 674 q 911 631 922 646 q 873 563 888 599 q 847 488 858 526 q 805 324 825 406 q 754 163 785 242 q 740 128 749 149 q 719 90 731 108 q 694 56 708 71 q 667 38 681 40 q 538 38 601 22 q 514 48 525 40 q 494 65 503 56 q 463 117 475 89 q 439 172 450 144 q 394 311 413 240 q 364 454 376 382 q 355 511 360 475 q 342 585 350 547 q 322 654 333 622 q 292 699 310 686 q 256 698 274 710 q 231 667 238 686 q 219 629 222 649 q 214 590 217 610 q 215 424 207 507 q 236 258 224 340 q 247 194 242 226 q 261 131 253 163 q 271 97 267 114 q 278 63 275 81 q 268 15 281 36 z "},"N":{"ha":971,"x_min":50,"x_max":932,"o":"m 256 -7 q 208 -12 236 -11 q 153 -9 181 -12 q 103 4 126 -6 q 67 31 79 14 q 53 76 56 44 q 51 142 50 107 q 56 210 53 178 q 60 261 58 243 q 66 541 65 401 q 65 821 67 681 q 63 862 65 842 q 63 903 61 882 q 67 931 64 917 q 79 956 71 944 q 106 973 88 965 q 145 986 124 981 q 188 994 167 992 q 221 996 208 996 q 279 965 256 993 q 315 905 293 949 q 358 811 336 861 q 398 716 379 761 q 425 651 417 671 q 483 493 457 572 q 546 338 510 414 q 560 310 551 325 q 577 285 568 294 q 595 273 586 275 q 611 283 604 271 q 619 307 618 294 q 622 332 621 319 q 622 422 626 376 q 608 574 617 499 q 590 726 600 650 q 580 794 585 760 q 578 863 575 828 q 589 915 581 889 q 617 961 597 942 q 653 982 632 976 q 696 990 674 988 q 751 992 724 993 q 804 983 778 990 q 836 973 821 981 q 863 953 851 965 q 896 876 889 919 q 910 790 903 832 q 928 593 924 692 q 925 394 932 494 q 913 274 921 333 q 886 156 906 214 q 850 80 872 117 q 793 21 828 43 q 735 -3 767 4 q 670 -6 703 -10 q 608 13 638 -1 q 560 51 579 28 q 530 100 547 65 q 492 178 513 135 q 450 272 471 222 q 410 365 429 321 q 376 445 390 410 q 353 497 361 481 q 367 355 360 426 q 372 211 374 283 q 368 149 371 179 q 357 88 365 118 q 347 60 353 74 q 333 35 342 46 q 299 7 319 17 q 256 -7 278 -3 z "},"O":{"ha":918,"x_min":26,"x_max":894,"o":"m 593 10 q 488 -19 543 -11 q 379 -22 433 -26 q 303 -10 342 -19 q 233 21 265 0 q 168 76 197 44 q 115 143 139 107 q 71 237 88 188 q 44 339 54 286 q 31 533 26 435 q 64 725 36 632 q 108 833 79 781 q 176 926 136 886 q 322 1025 239 992 q 496 1056 404 1058 q 592 1041 544 1054 q 682 1004 640 1028 q 804 893 757 964 q 849 810 832 854 q 875 719 867 765 q 888 516 894 619 q 850 315 882 413 q 801 205 831 258 q 732 107 772 151 q 668 51 703 76 q 593 10 633 25 m 472 169 q 546 168 507 154 q 600 206 576 181 q 642 260 624 232 q 716 455 696 347 q 721 665 736 563 q 706 733 717 700 q 674 793 696 767 q 638 829 658 813 q 593 853 617 846 q 521 849 557 864 q 472 817 493 838 q 433 774 450 797 q 389 688 404 735 q 365 592 374 640 q 354 478 356 535 q 361 364 353 421 q 411 225 369 288 q 438 192 422 207 q 472 169 453 178 z "},"P":{"ha":842,"x_min":53,"x_max":829,"o":"m 294 7 q 247 -9 272 -4 q 199 -14 222 -14 q 151 -12 175 -14 q 106 1 128 -10 q 65 38 78 13 q 55 72 57 53 q 53 110 53 92 q 54 173 53 128 q 58 276 56 218 q 62 399 60 335 q 66 522 64 464 q 69 626 68 581 q 68 689 69 671 q 64 756 67 714 q 63 841 61 797 q 71 924 64 885 q 94 981 78 963 q 118 997 104 992 q 147 1006 132 1003 q 230 1015 188 1014 q 315 1014 272 1015 q 407 1012 361 1014 q 499 1007 453 1010 q 589 994 543 1003 q 674 961 635 985 q 740 903 711 938 q 789 828 769 868 q 826 669 824 756 q 801 507 829 583 q 758 423 786 463 q 690 356 729 383 q 588 306 644 322 q 474 294 531 290 q 404 307 439 297 q 342 336 369 317 q 345 274 343 315 q 348 188 347 233 q 346 103 349 143 q 335 44 343 63 q 317 23 328 32 q 294 7 307 14 m 336 457 q 344 437 336 444 q 363 425 351 429 q 387 421 374 421 q 413 424 400 421 q 449 442 432 428 q 479 471 467 456 q 506 513 496 490 q 524 560 517 536 q 538 659 536 608 q 529 758 540 710 q 514 802 525 779 q 488 844 503 825 q 453 874 472 863 q 411 886 433 886 q 377 876 392 886 q 352 851 363 867 q 337 817 342 836 q 332 778 332 797 q 332 617 331 697 q 336 457 333 538 z "},"Q":{"ha":925,"x_min":26,"x_max":903,"o":"m 878 -114 q 823 -151 854 -136 q 760 -167 792 -165 q 713 -151 732 -167 q 690 -125 699 -140 q 675 -94 682 -110 q 649 -35 660 -65 q 628 26 639 -6 q 513 -15 575 -4 q 388 -22 450 -26 q 307 -10 347 -19 q 233 21 267 -1 q 168 76 197 44 q 115 143 139 107 q 71 237 88 188 q 44 339 54 286 q 31 533 26 435 q 64 725 36 632 q 108 833 79 781 q 176 926 136 886 q 322 1025 239 992 q 496 1056 404 1058 q 592 1041 544 1054 q 682 1004 640 1028 q 804 893 757 964 q 849 810 832 854 q 875 719 867 765 q 889 571 889 646 q 876 421 889 496 q 842 290 865 354 q 781 169 818 226 q 829 89 806 129 q 875 7 853 49 q 894 -31 885 -11 q 901 -69 903 -50 q 893 -93 900 -82 q 878 -114 886 -104 m 483 165 q 527 164 504 158 q 568 181 550 169 q 528 265 549 222 q 517 283 525 271 q 502 310 510 296 q 488 338 494 325 q 482 358 482 351 q 496 394 479 378 q 532 415 513 410 q 569 411 549 421 q 608 386 589 401 q 643 352 626 371 q 672 319 660 333 q 721 489 708 400 q 721 665 733 578 q 706 733 717 700 q 674 793 696 767 q 638 829 658 813 q 593 853 617 846 q 521 849 557 864 q 472 817 493 838 q 433 774 450 797 q 389 688 404 735 q 365 592 374 640 q 354 478 356 535 q 361 364 353 421 q 411 225 369 288 q 443 189 425 206 q 483 165 461 172 z "},"R":{"ha":867,"x_min":53,"x_max":849,"o":"m 722 -28 q 604 -28 663 -35 q 565 -21 585 -25 q 529 -7 546 -17 q 498 21 511 4 q 475 57 485 38 q 451 123 460 89 q 432 192 442 157 q 419 225 426 208 q 400 256 411 242 q 374 276 389 267 q 344 285 360 285 q 347 235 346 268 q 348 165 349 201 q 344 94 347 128 q 335 46 342 61 q 294 7 322 21 q 247 -9 272 -4 q 199 -14 222 -14 q 151 -12 175 -14 q 106 1 128 -10 q 65 38 78 13 q 55 72 57 53 q 53 110 53 92 q 54 173 53 128 q 58 276 56 218 q 62 399 60 335 q 66 522 64 464 q 69 626 68 581 q 68 689 69 671 q 64 756 67 714 q 63 841 61 797 q 71 924 64 885 q 94 981 78 963 q 118 997 104 992 q 147 1006 132 1003 q 230 1015 188 1014 q 315 1014 272 1015 q 407 1012 361 1014 q 499 1007 453 1010 q 589 994 543 1003 q 674 961 635 985 q 740 903 711 938 q 789 828 769 868 q 826 669 824 756 q 801 507 829 583 q 774 447 790 476 q 735 394 757 418 q 688 353 714 371 q 633 322 661 336 q 683 267 664 303 q 702 220 694 244 q 718 172 710 196 q 731 145 724 158 q 749 122 738 132 q 769 111 757 114 q 794 108 782 108 q 835 85 821 107 q 842 38 849 64 q 824 8 836 22 q 796 -12 811 -6 q 760 -22 779 -19 q 722 -28 742 -25 m 336 457 q 344 437 336 444 q 363 425 351 429 q 387 421 374 421 q 413 424 400 421 q 449 442 432 428 q 479 471 467 456 q 506 513 496 490 q 524 560 517 536 q 538 659 536 608 q 529 758 540 710 q 514 802 525 779 q 488 844 503 825 q 453 874 472 863 q 411 886 433 886 q 377 876 392 886 q 352 851 363 867 q 337 817 342 836 q 332 778 332 797 q 332 617 331 697 q 336 457 333 538 z "},"S":{"ha":769,"x_min":26,"x_max":742,"o":"m 428 -19 q 330 -32 379 -29 q 232 -29 281 -35 q 163 -19 197 -26 q 97 4 129 -12 q 64 34 78 15 q 42 74 50 53 q 29 130 32 100 q 33 188 26 160 q 55 238 39 215 q 96 272 71 260 q 165 285 128 288 q 239 279 203 283 q 371 271 304 268 q 408 274 390 272 q 443 283 426 276 q 476 317 467 294 q 474 363 485 339 q 431 409 460 390 q 372 438 403 428 q 285 460 329 450 q 201 488 242 471 q 133 529 165 503 q 79 589 100 556 q 49 664 58 622 q 42 746 39 706 q 68 844 46 796 q 125 929 90 893 q 197 983 157 961 q 281 1015 238 1004 q 438 1037 357 1038 q 593 1013 518 1036 q 644 997 619 1006 q 692 974 668 988 q 715 956 704 967 q 733 933 726 946 q 741 908 740 921 q 742 881 742 894 q 722 787 740 833 q 669 708 703 740 q 623 678 650 689 q 568 669 596 668 q 494 688 529 672 q 419 714 458 704 q 378 717 400 719 q 342 699 356 714 q 331 665 331 685 q 339 629 331 644 q 367 594 349 610 q 404 568 385 579 q 485 528 443 544 q 568 497 526 513 q 621 471 596 486 q 665 435 646 456 q 697 391 683 415 q 717 340 710 367 q 726 266 726 304 q 714 192 725 228 q 683 124 703 156 q 633 67 663 92 q 538 11 592 31 q 428 -19 483 -8 z "},"T":{"ha":622,"x_min":-3,"x_max":628,"o":"m 401 -25 q 347 -40 378 -35 q 285 -42 317 -44 q 227 -31 254 -40 q 183 -1 200 -21 q 163 32 171 14 q 153 69 156 50 q 146 128 147 99 q 143 186 144 157 q 142 269 142 228 q 144 353 143 311 q 150 526 146 440 q 164 697 154 611 q 174 772 168 735 q 185 844 179 808 q 145 841 169 843 q 96 840 121 839 q 49 847 71 842 q 18 864 28 851 q 0 915 3 881 q 8 969 -3 949 q 22 988 14 979 q 40 1000 29 996 q 69 1003 49 1003 q 114 1004 90 1004 q 158 1003 138 1004 q 188 1003 179 1003 q 226 1002 199 1003 q 288 1001 253 1001 q 360 1001 322 1001 q 433 1001 399 1001 q 494 1002 467 1001 q 532 1004 521 1003 q 555 1007 543 1006 q 578 1006 567 1008 q 607 991 596 1003 q 623 963 618 979 q 626 927 628 946 q 617 892 624 908 q 583 860 607 868 q 556 857 575 857 q 516 857 538 857 q 475 858 494 857 q 447 858 456 858 q 445 830 446 843 q 444 803 444 817 q 457 401 440 601 q 469 285 461 343 q 482 169 476 228 q 484 106 485 138 q 472 44 483 74 q 444 3 464 21 q 401 -25 425 -15 z "},"U":{"ha":910,"x_min":36,"x_max":874,"o":"m 485 -40 q 346 -24 415 -43 q 221 38 276 -4 q 152 103 182 65 q 101 183 122 142 q 56 315 69 246 q 40 453 43 383 q 46 658 36 557 q 67 861 56 760 q 74 905 69 883 q 90 944 79 926 q 142 992 110 976 q 190 1007 165 1003 q 238 1013 214 1011 q 283 1013 261 1014 q 329 1006 306 1011 q 367 993 349 1001 q 397 969 385 985 q 416 938 410 956 q 425 903 422 921 q 426 857 428 879 q 422 811 425 835 q 397 601 408 707 q 393 390 386 496 q 407 264 397 328 q 453 147 417 200 q 513 109 475 115 q 581 126 550 103 q 631 184 611 150 q 663 254 651 218 q 688 369 681 311 q 696 486 696 428 q 685 668 697 578 q 657 850 674 758 q 653 880 656 861 q 651 919 651 899 q 653 956 651 939 q 663 983 656 974 q 694 999 671 994 q 732 1003 718 1003 q 745 1003 736 1003 q 765 1001 754 1003 q 785 999 775 1000 q 799 996 794 997 q 817 979 810 990 q 828 956 825 968 q 856 813 846 885 q 869 668 865 740 q 870 517 874 592 q 853 367 867 442 q 829 265 844 315 q 790 168 814 215 q 733 79 767 121 q 656 10 700 38 q 574 -26 618 -14 q 485 -40 529 -39 z "},"V":{"ha":860,"x_min":17,"x_max":858,"o":"m 460 -10 q 372 -10 417 -17 q 290 18 326 -4 q 241 65 261 36 q 207 124 221 93 q 144 281 171 200 q 98 445 118 363 q 63 613 78 528 q 33 781 47 697 q 27 817 31 793 q 20 869 24 842 q 17 920 17 896 q 21 957 17 944 q 43 985 28 974 q 75 1004 58 997 q 147 1026 108 1019 q 221 1025 185 1032 q 294 988 265 1015 q 316 954 308 972 q 331 917 324 936 q 348 856 342 886 q 361 794 354 826 q 388 644 376 719 q 411 492 400 568 q 427 389 418 440 q 454 289 436 338 q 469 249 458 275 q 496 218 481 224 q 515 226 507 215 q 528 247 522 236 q 540 278 535 263 q 550 311 544 294 q 572 419 564 364 q 592 528 581 474 q 635 733 613 631 q 675 939 658 835 q 690 988 678 963 q 726 1022 703 1013 q 765 1031 744 1031 q 803 1027 786 1032 q 835 1010 821 1022 q 854 978 849 997 q 855 932 858 963 q 844 868 851 901 q 827 804 836 835 q 813 757 818 774 q 794 698 807 740 q 766 600 782 656 q 733 483 750 544 q 699 365 715 421 q 672 267 683 310 q 654 208 660 225 q 617 118 639 163 q 561 40 596 74 q 514 8 540 21 q 460 -10 488 -4 z "},"W":{"ha":1244,"x_min":22,"x_max":1224,"o":"m 979 17 q 886 -8 935 -1 q 790 -6 838 -14 q 703 28 746 3 q 635 92 660 53 q 540 17 599 40 q 432 -10 490 -7 q 319 1 374 -12 q 180 70 243 21 q 79 190 117 119 q 32 345 42 263 q 31 508 22 428 q 83 728 42 621 q 192 926 124 836 q 248 974 215 957 q 316 993 281 990 q 387 985 351 996 q 453 949 422 974 q 476 924 465 938 q 493 896 486 911 q 497 863 499 881 q 488 831 494 846 q 429 708 460 768 q 375 585 399 649 q 348 499 360 543 q 332 411 336 456 q 341 299 328 356 q 388 199 354 243 q 420 172 401 181 q 459 162 439 163 q 499 169 479 161 q 532 196 518 178 q 569 280 560 232 q 579 374 578 328 q 575 488 582 432 q 551 599 568 544 q 556 673 540 635 q 604 732 571 711 q 650 751 622 744 q 707 757 678 757 q 763 750 736 757 q 808 729 790 743 q 842 688 831 715 q 855 626 854 658 q 853 561 856 593 q 840 464 849 513 q 829 367 831 415 q 831 318 828 343 q 840 269 833 293 q 856 245 844 256 q 882 229 868 235 q 925 219 901 221 q 967 231 949 218 q 995 265 986 243 q 1011 310 1004 288 q 1024 423 1025 365 q 1013 536 1022 481 q 988 621 1004 579 q 953 703 972 663 q 915 784 933 743 q 883 867 896 825 q 879 908 876 886 q 893 944 882 929 q 921 973 903 961 q 959 992 939 985 q 1000 1001 979 1000 q 1039 994 1021 1001 q 1058 982 1050 990 q 1074 964 1067 974 q 1183 698 1143 840 q 1214 414 1224 556 q 1183 258 1208 335 q 1113 115 1158 181 q 1053 57 1088 82 q 979 17 1018 32 z "},"X":{"ha":796,"x_min":11,"x_max":783,"o":"m 776 90 q 749 44 769 65 q 702 10 729 24 q 644 -9 675 -3 q 588 -12 614 -15 q 544 3 561 -10 q 506 48 519 19 q 479 104 492 76 q 458 147 474 115 q 424 215 442 179 q 389 281 406 250 q 365 324 372 313 q 275 201 313 267 q 200 68 238 135 q 176 30 189 49 q 143 3 163 11 q 94 -5 118 -8 q 51 13 69 -1 q 22 49 32 26 q 15 97 11 71 q 20 118 17 108 q 28 138 24 128 q 66 194 44 168 q 108 249 88 221 q 147 299 128 274 q 185 347 165 324 q 228 410 208 378 q 271 474 247 442 q 274 478 274 476 q 257 495 268 482 q 234 524 246 508 q 212 553 222 539 q 197 572 201 567 q 135 651 168 613 q 75 732 103 689 q 55 769 64 750 q 43 811 46 789 q 52 873 40 843 q 85 928 64 903 q 136 970 107 953 q 197 994 165 988 q 239 997 217 999 q 279 983 261 994 q 306 961 294 974 q 328 933 317 949 q 349 899 333 924 q 383 847 365 875 q 415 794 400 819 q 433 758 429 769 q 506 863 469 811 q 589 958 543 914 q 616 981 601 971 q 647 994 631 992 q 676 992 661 997 q 705 976 692 986 q 728 952 718 965 q 744 925 739 939 q 749 882 753 904 q 728 844 742 861 q 699 813 714 828 q 615 725 657 768 q 533 633 572 682 q 534 631 532 632 q 536 628 536 631 q 582 553 558 589 q 628 478 606 517 q 707 330 671 406 q 769 175 743 254 q 780 133 776 156 q 776 90 783 111 z "},"Y":{"ha":878,"x_min":13,"x_max":878,"o":"m 506 10 q 469 -10 490 -6 q 426 -14 447 -15 q 373 -6 400 -12 q 326 19 346 1 q 305 67 310 36 q 302 132 300 97 q 310 201 304 167 q 321 258 317 235 q 349 373 333 317 q 383 486 365 429 q 316 458 351 469 q 244 443 281 446 q 191 445 218 440 q 140 461 164 450 q 85 503 107 476 q 41 579 56 536 q 21 667 26 622 q 17 796 13 731 q 35 924 21 861 q 56 969 40 949 q 90 1006 71 990 q 141 1031 114 1022 q 196 1039 168 1039 q 249 1037 222 1039 q 299 1025 275 1035 q 331 1007 315 1018 q 351 979 346 996 q 354 942 358 961 q 343 906 350 924 q 309 783 322 844 q 294 657 296 721 q 294 624 294 643 q 298 588 294 606 q 308 554 301 569 q 326 533 314 539 q 349 533 338 528 q 369 546 361 539 q 398 581 386 561 q 421 619 410 600 q 469 728 449 672 q 513 839 489 785 q 551 912 528 876 q 606 972 574 947 q 648 996 625 988 q 694 1004 671 1004 q 739 1002 717 1006 q 783 993 761 999 q 821 981 803 989 q 854 960 839 974 q 878 904 878 936 q 874 874 878 889 q 863 843 869 858 q 833 776 847 810 q 800 711 818 743 q 650 376 714 553 q 606 240 626 308 q 558 106 586 172 q 536 55 547 81 q 506 10 525 29 z "},"Z":{"ha":797,"x_min":22,"x_max":779,"o":"m 571 -12 q 524 -12 556 -12 q 450 -13 492 -12 q 363 -14 408 -14 q 277 -13 318 -14 q 203 -11 236 -12 q 157 -7 171 -10 q 116 7 136 -3 q 83 33 96 17 q 64 72 69 50 q 57 115 58 93 q 65 167 57 142 q 86 214 72 192 q 156 316 118 267 q 233 414 194 365 q 264 449 240 422 q 314 506 288 476 q 364 563 340 536 q 394 597 388 589 q 433 644 414 621 q 471 690 451 667 q 340 671 404 681 q 210 656 276 661 q 168 652 189 653 q 126 654 147 651 q 96 660 111 657 q 68 672 81 664 q 50 690 57 679 q 39 711 43 700 q 29 747 32 728 q 25 785 26 765 q 24 847 22 815 q 31 908 25 878 q 38 938 33 924 q 50 965 42 953 q 85 993 63 985 q 144 1007 110 1004 q 209 1012 161 1008 q 312 1018 257 1015 q 415 1023 367 1021 q 479 1025 463 1025 q 643 1021 561 1028 q 689 1015 667 1018 q 731 1000 711 1011 q 763 964 751 988 q 777 907 775 938 q 772 847 779 876 q 742 762 763 803 q 699 683 722 721 q 633 592 667 636 q 565 501 599 547 q 472 370 518 436 q 386 235 426 304 q 449 246 406 239 q 542 259 493 253 q 634 268 590 265 q 697 267 678 271 q 726 247 715 263 q 742 207 736 233 q 749 151 747 181 q 748 95 750 122 q 742 51 746 68 q 722 15 736 32 q 688 -8 707 -1 q 630 -15 660 -17 q 571 -12 600 -12 z "},"[":{"ha":517,"x_min":50,"x_max":518,"o":"m 488 -142 q 440 -158 472 -153 q 370 -163 407 -162 q 298 -162 333 -164 q 244 -161 263 -161 q 187 -159 215 -161 q 131 -147 158 -157 q 96 -131 113 -140 q 68 -106 79 -121 q 53 -53 50 -82 q 56 15 53 -36 q 64 125 60 67 q 72 235 68 183 q 75 303 75 286 q 78 476 78 390 q 75 650 78 563 q 72 697 74 664 q 69 773 71 731 q 65 862 67 815 q 61 951 63 908 q 59 1026 60 993 q 60 1074 58 1060 q 74 1121 63 1097 q 106 1157 85 1144 q 179 1175 139 1176 q 258 1176 219 1174 q 324 1180 292 1178 q 390 1182 357 1182 q 416 1181 400 1182 q 447 1178 432 1181 q 476 1169 463 1175 q 494 1154 489 1164 q 503 1126 500 1143 q 508 1092 507 1110 q 506 1056 508 1074 q 500 1028 504 1039 q 488 1008 494 1017 q 472 994 482 1000 q 422 981 449 981 q 368 982 394 981 q 387 687 389 835 q 381 390 385 539 q 376 322 381 374 q 368 210 372 269 q 360 100 364 151 q 356 32 356 49 q 380 32 363 32 q 417 33 397 32 q 453 33 436 33 q 476 32 469 33 q 497 21 490 29 q 509 -3 504 13 q 516 -35 514 -18 q 517 -69 518 -53 q 514 -96 517 -86 q 505 -121 511 -108 q 488 -142 499 -133 z "},"\\":{"ha":564,"x_min":-17,"x_max":551,"o":"m 513 -46 q 476 -64 497 -57 q 433 -74 456 -71 q 388 -73 410 -76 q 351 -60 367 -69 q 313 -12 331 -47 q 280 65 294 24 q 255 146 265 106 q 239 210 244 186 q 147 531 199 372 q 25 843 96 690 q -3 909 10 875 q -14 979 -17 943 q 10 1043 -11 1015 q 63 1085 32 1071 q 130 1099 94 1100 q 194 1078 165 1099 q 237 1024 222 1058 q 263 957 251 989 q 306 831 286 894 q 344 704 325 768 q 413 510 376 606 q 481 317 449 415 q 517 199 500 258 q 546 79 535 140 q 550 45 549 63 q 547 13 551 28 q 535 -19 543 -4 q 513 -46 526 -35 z "},"]":{"ha":518,"x_min":-1,"x_max":467,"o":"m 269 -161 q 200 -163 235 -162 q 129 -161 165 -164 q 54 -151 89 -161 q 20 -130 32 -146 q 3 -93 8 -114 q 1 -49 -1 -72 q 10 -3 3 -25 q 17 16 13 7 q 32 28 22 25 q 58 33 39 32 q 97 33 76 33 q 137 33 118 33 q 164 32 156 32 q 160 100 164 49 q 151 210 156 151 q 143 321 147 269 q 139 389 139 372 q 132 686 135 538 q 150 982 129 835 q 93 981 122 981 q 42 997 64 981 q 23 1020 31 1007 q 13 1049 15 1033 q 10 1076 11 1060 q 12 1110 10 1093 q 19 1141 14 1126 q 32 1163 24 1156 q 76 1179 46 1175 q 139 1183 106 1183 q 204 1181 172 1183 q 256 1176 236 1178 q 306 1176 281 1175 q 356 1174 331 1176 q 394 1165 375 1171 q 428 1146 413 1160 q 449 1116 442 1133 q 460 1079 457 1099 q 462 1015 463 1047 q 460 950 461 982 q 453 838 457 893 q 447 726 450 783 q 442 515 443 621 q 444 303 440 410 q 446 265 444 292 q 449 203 447 239 q 454 130 451 168 q 459 56 457 92 q 463 -6 461 21 q 465 -43 464 -32 q 464 -75 467 -58 q 451 -106 461 -92 q 423 -131 440 -121 q 388 -147 406 -140 q 330 -159 360 -157 q 269 -161 300 -161 z "},"^":{"ha":657,"x_min":25,"x_max":633,"o":"m 171 511 q 123 508 147 504 q 78 526 99 513 q 43 559 57 539 q 26 604 29 579 q 28 629 25 617 q 35 653 31 642 q 56 706 43 681 q 82 757 68 732 q 120 824 100 792 q 161 889 140 857 q 204 947 181 919 q 260 992 228 974 q 320 1008 288 1007 q 382 997 353 1010 q 431 963 408 985 q 488 899 463 933 q 536 828 513 864 q 581 751 560 790 q 618 672 601 713 q 629 635 625 654 q 631 596 633 615 q 616 567 629 581 q 585 544 603 554 q 547 526 567 533 q 513 514 528 518 q 481 510 497 510 q 449 517 464 510 q 419 541 432 525 q 397 575 407 557 q 360 663 375 617 q 325 751 346 708 q 303 710 319 740 q 269 646 288 681 q 235 581 251 611 q 211 542 218 551 q 171 511 196 521 z "},"_":{"ha":714,"x_min":-32,"x_max":747,"o":"m 185 -194 q 135 -197 165 -196 q 75 -195 106 -197 q 19 -185 44 -193 q -18 -161 -7 -178 q -31 -122 -29 -144 q -32 -79 -32 -100 q -27 -49 -31 -64 q -14 -21 -24 -33 q 8 -2 -4 -10 q 35 10 21 6 q 94 19 54 15 q 185 25 135 24 q 292 26 236 26 q 397 26 347 26 q 488 24 447 25 q 550 22 529 22 q 576 21 557 22 q 615 18 594 19 q 653 15 635 17 q 678 11 671 13 q 708 -2 693 7 q 732 -26 724 -11 q 743 -56 739 -37 q 747 -92 747 -74 q 744 -129 747 -111 q 732 -158 740 -147 q 699 -182 721 -175 q 658 -192 678 -189 q 606 -194 643 -193 q 522 -194 569 -194 q 422 -194 475 -194 q 321 -194 368 -194 q 237 -194 274 -193 q 185 -194 200 -194 z "},"a":{"ha":910,"x_min":21,"x_max":907,"o":"m 786 -11 q 747 -22 767 -18 q 706 -26 726 -26 q 665 -23 685 -28 q 626 -10 646 -18 q 617 -2 624 -7 q 607 3 610 3 q 577 22 592 7 q 550 56 563 36 q 528 97 538 76 q 513 131 518 117 q 458 59 490 92 q 386 7 426 26 q 278 -16 336 -18 q 172 17 221 -14 q 92 98 124 46 q 44 206 60 150 q 24 390 21 294 q 61 571 28 486 q 100 640 76 607 q 156 697 124 674 q 238 739 192 725 q 328 749 283 753 q 419 724 375 744 q 501 676 463 704 q 507 715 504 696 q 518 751 510 733 q 522 762 518 757 q 529 771 526 767 q 570 796 544 789 q 619 806 596 803 q 659 810 639 808 q 700 811 679 813 q 738 806 719 811 q 771 789 757 801 q 797 755 788 775 q 810 713 806 735 q 815 653 815 683 q 813 592 815 622 q 795 433 806 513 q 785 274 785 353 q 785 228 785 250 q 790 185 786 207 q 796 165 793 175 q 806 146 799 154 q 831 133 815 133 q 848 133 839 132 q 865 138 857 135 q 897 122 888 143 q 900 81 907 101 q 871 36 894 54 q 831 8 853 19 q 786 -11 810 -3 m 299 303 q 310 261 303 282 q 329 226 318 240 q 356 203 340 211 q 393 203 372 196 q 436 237 419 211 q 463 295 453 263 q 478 363 474 328 q 483 426 482 399 q 482 438 483 431 q 478 454 481 446 q 474 470 476 463 q 471 481 472 478 q 448 520 463 503 q 415 553 433 538 q 383 566 401 563 q 350 563 365 569 q 333 547 339 557 q 321 526 326 538 q 292 417 296 476 q 299 303 288 358 z "},"b":{"ha":825,"x_min":47,"x_max":807,"o":"m 283 -4 q 243 -22 265 -17 q 199 -28 221 -28 q 160 -25 182 -28 q 116 -15 138 -22 q 76 1 94 -8 q 51 26 58 11 q 48 49 49 33 q 48 83 47 65 q 50 116 49 100 q 51 140 51 132 q 59 307 58 224 q 61 474 60 390 q 63 645 64 560 q 56 818 63 731 q 50 862 53 840 q 50 907 47 883 q 56 938 51 922 q 69 964 60 953 q 115 994 86 983 q 176 1008 143 1004 q 243 1010 210 1013 q 300 1000 276 1007 q 328 988 315 994 q 350 969 340 981 q 379 885 372 942 q 385 765 386 829 q 377 641 383 701 q 368 546 371 581 q 415 615 389 582 q 478 672 442 649 q 530 697 501 689 q 588 703 558 704 q 644 694 617 703 q 694 668 672 685 q 749 601 728 642 q 781 521 769 561 q 806 369 804 447 q 786 215 807 290 q 760 142 776 178 q 718 78 743 107 q 630 11 681 33 q 527 -12 579 -11 q 425 8 475 -14 q 338 74 375 29 q 315 31 328 51 q 283 -4 303 10 m 422 157 q 453 158 438 153 q 483 174 468 163 q 509 199 497 185 q 529 228 521 214 q 569 328 557 274 q 575 436 582 383 q 567 474 572 456 q 551 507 563 492 q 531 527 543 518 q 506 538 519 536 q 469 527 486 539 q 440 497 453 515 q 417 455 426 478 q 401 414 407 432 q 385 351 392 383 q 378 288 379 319 q 377 250 376 271 q 383 210 378 229 q 397 176 388 192 q 422 157 406 161 z "},"c":{"ha":594,"x_min":21,"x_max":585,"o":"m 460 19 q 339 -13 404 -8 q 214 0 274 -18 q 128 49 165 15 q 89 94 106 68 q 61 147 72 119 q 33 245 42 194 q 22 347 25 296 q 27 439 21 393 q 50 526 33 485 q 136 644 79 597 q 260 708 193 692 q 395 706 326 724 q 517 633 464 689 q 567 553 549 599 q 571 517 574 535 q 559 485 568 500 q 534 461 550 471 q 500 450 518 451 q 464 465 479 449 q 446 491 453 476 q 426 514 439 506 q 401 522 415 522 q 376 518 388 522 q 341 484 353 508 q 324 429 329 460 q 317 367 318 399 q 318 310 317 335 q 324 268 318 292 q 339 223 329 244 q 363 184 349 201 q 394 161 376 167 q 425 159 410 156 q 454 169 440 163 q 490 190 471 179 q 528 199 508 201 q 572 166 560 194 q 567 111 585 138 q 460 19 524 51 z "},"d":{"ha":942,"x_min":11,"x_max":932,"o":"m 926 126 q 891 58 915 88 q 834 10 867 28 q 764 -10 801 -7 q 689 1 726 -14 q 612 58 644 19 q 560 139 579 96 q 519 92 540 114 q 471 54 497 71 q 378 12 429 26 q 278 3 328 -3 q 206 22 242 7 q 142 61 169 38 q 69 151 97 99 q 28 261 40 204 q 24 428 11 343 q 56 539 35 485 q 114 638 76 593 q 204 708 153 683 q 311 738 256 733 q 422 724 367 742 q 522 667 476 706 q 538 799 528 733 q 556 932 549 865 q 572 976 558 956 q 617 1011 589 1000 q 670 1024 642 1022 q 726 1019 699 1026 q 768 1010 747 1015 q 806 990 789 1004 q 842 924 832 969 q 851 827 851 879 q 844 724 850 775 q 835 639 839 672 q 822 489 828 564 q 815 339 817 414 q 815 301 815 319 q 817 264 815 283 q 822 227 819 246 q 833 193 825 208 q 853 191 843 190 q 873 194 863 192 q 894 197 883 196 q 913 193 904 197 q 930 164 928 185 q 926 126 932 143 m 374 242 q 421 244 397 228 q 457 283 444 260 q 490 379 482 328 q 492 479 499 431 q 483 522 489 500 q 463 558 478 543 q 407 572 439 583 q 374 550 389 567 q 350 512 360 533 q 335 467 340 490 q 329 425 329 443 q 330 353 326 389 q 346 282 333 317 q 356 260 350 271 q 374 242 363 249 z "},"e":{"ha":689,"x_min":15,"x_max":674,"o":"m 513 -14 q 401 -53 461 -42 q 283 -56 342 -64 q 154 6 211 -43 q 67 113 101 50 q 21 244 32 176 q 20 324 15 285 q 35 403 25 364 q 115 565 58 490 q 250 683 171 639 q 331 718 288 706 q 417 728 374 731 q 499 708 458 725 q 569 661 540 690 q 609 599 596 633 q 622 527 622 564 q 607 455 621 490 q 568 390 593 419 q 510 345 543 363 q 440 318 476 328 q 366 310 404 307 q 292 325 328 314 q 291 283 292 307 q 293 237 290 260 q 305 197 296 214 q 331 174 314 179 q 381 173 354 165 q 429 193 407 181 q 467 225 450 206 q 503 261 483 244 q 526 281 514 272 q 551 294 538 290 q 593 292 572 299 q 622 274 607 286 q 649 245 638 261 q 667 212 660 229 q 674 179 674 194 q 658 128 672 153 q 628 85 643 104 q 575 30 604 56 q 513 -14 546 4 m 317 426 q 360 416 332 418 q 404 422 389 414 q 423 441 415 429 q 436 465 431 453 q 449 513 446 488 q 442 560 451 538 q 424 584 436 572 q 400 593 413 596 q 378 577 390 590 q 361 556 365 564 q 322 449 333 507 q 319 437 319 442 q 317 426 319 432 z "},"f":{"ha":639,"x_min":33,"x_max":621,"o":"m 383 -111 q 357 -154 376 -136 q 311 -183 338 -172 q 256 -196 285 -193 q 200 -194 226 -199 q 149 -181 174 -192 q 106 -151 124 -171 q 68 -92 81 -126 q 53 -22 56 -58 q 38 139 43 58 q 35 301 33 219 q 39 428 36 365 q 50 554 42 492 q 70 651 57 603 q 107 743 83 700 q 145 788 122 768 q 196 821 168 808 q 296 841 242 842 q 400 829 350 840 q 428 822 407 826 q 475 810 450 817 q 522 799 500 804 q 550 790 543 793 q 578 778 565 785 q 601 761 590 772 q 614 739 610 751 q 619 714 618 726 q 618 672 621 693 q 610 631 615 650 q 601 599 606 615 q 585 571 596 583 q 554 553 571 557 q 530 552 543 550 q 506 557 517 554 q 444 576 474 564 q 383 590 415 588 q 366 590 375 592 q 351 582 357 589 q 342 554 344 574 q 337 513 339 535 q 335 472 335 492 q 335 440 335 451 q 335 414 335 435 q 336 388 336 393 q 415 392 376 388 q 494 394 454 396 q 529 392 513 394 q 561 383 546 390 q 599 342 589 372 q 600 290 606 318 q 575 246 594 261 q 530 228 556 231 q 479 226 504 225 q 350 239 414 231 q 367 103 353 169 q 389 -32 382 36 q 390 -72 390 -51 q 383 -111 389 -92 z "},"g":{"ha":803,"x_min":24,"x_max":767,"o":"m 485 -232 q 394 -243 440 -242 q 304 -233 349 -244 q 247 -214 275 -226 q 199 -181 219 -201 q 172 -140 182 -164 q 161 -93 163 -117 q 165 -55 161 -75 q 178 -17 169 -35 q 201 14 188 1 q 233 29 215 26 q 262 30 240 31 q 308 28 283 29 q 356 27 333 28 q 385 28 378 26 q 445 53 417 33 q 489 101 474 74 q 508 164 504 131 q 514 231 513 197 q 367 117 460 151 q 276 97 324 100 q 183 110 228 94 q 74 194 114 133 q 49 243 58 218 q 33 296 39 268 q 24 387 24 340 q 29 479 24 433 q 45 581 36 529 q 82 675 54 632 q 171 763 117 733 q 285 797 225 793 q 406 778 346 801 q 514 707 467 756 q 524 726 518 717 q 540 739 531 735 q 576 749 554 744 q 622 756 599 754 q 667 755 646 757 q 701 746 689 753 q 742 690 728 729 q 761 603 756 650 q 767 510 767 557 q 767 431 767 463 q 763 256 767 343 q 743 83 758 169 q 713 -32 732 25 q 656 -133 693 -89 q 578 -197 624 -171 q 485 -232 533 -222 m 375 272 q 401 280 389 271 q 422 300 413 289 q 444 335 436 317 q 460 374 453 354 q 473 422 467 397 q 482 469 479 446 q 484 501 483 483 q 483 538 485 519 q 475 569 481 556 q 457 590 469 583 q 422 592 443 597 q 390 576 401 586 q 367 547 375 564 q 351 511 358 529 q 331 453 340 483 q 318 393 322 424 q 317 353 315 374 q 324 316 318 333 q 343 286 331 299 q 375 272 356 274 z "},"h":{"ha":817,"x_min":39,"x_max":815,"o":"m 736 -8 q 666 -22 703 -21 q 595 -15 629 -24 q 533 15 561 -6 q 492 67 506 35 q 477 113 481 89 q 472 160 474 136 q 473 224 469 192 q 481 288 476 256 q 481 319 482 303 q 474 349 481 335 q 450 378 464 368 q 397 381 424 394 q 357 339 369 367 q 349 317 354 333 q 343 294 343 301 q 346 253 344 283 q 349 190 347 224 q 350 128 350 157 q 349 88 350 99 q 275 -4 340 18 q 226 -15 251 -12 q 176 -17 201 -17 q 132 -13 154 -15 q 90 -1 110 -11 q 51 32 65 7 q 41 67 43 49 q 42 104 39 86 q 52 278 53 190 q 50 453 51 365 q 52 626 49 540 q 75 797 56 713 q 103 891 86 844 q 153 971 119 938 q 240 1030 190 1008 q 343 1051 290 1051 q 446 1031 397 1054 q 515 977 483 1011 q 557 901 547 943 q 558 827 565 865 q 536 754 550 789 q 497 669 519 710 q 446 589 474 628 q 399 526 424 557 q 344 469 374 496 q 335 465 340 467 q 331 458 331 463 l 331 417 q 378 476 351 449 q 436 522 404 503 q 518 554 475 549 q 572 555 544 558 q 622 540 599 551 q 673 506 650 528 q 711 460 696 485 q 724 427 721 444 q 729 393 728 410 q 725 315 731 353 q 717 236 719 276 q 714 192 714 214 q 718 147 714 169 q 726 122 721 135 q 742 100 731 108 q 762 88 750 92 q 785 83 774 85 q 799 83 792 83 q 810 76 806 82 q 814 62 815 69 q 810 47 813 54 q 779 13 800 26 q 736 -8 758 -1 m 353 767 q 340 656 343 711 q 333 544 336 601 q 409 676 376 607 q 442 821 442 746 q 436 844 442 833 q 422 862 431 856 q 404 868 414 868 q 386 860 394 868 q 363 816 368 842 q 353 767 357 790 z "},"i":{"ha":464,"x_min":33,"x_max":460,"o":"m 389 949 q 388 865 399 906 q 351 795 376 825 q 287 748 325 765 q 204 732 249 731 q 151 740 178 732 q 104 764 125 749 q 68 814 79 782 q 62 856 61 833 q 69 899 63 878 q 101 967 79 935 q 153 1022 124 999 q 197 1048 172 1038 q 246 1058 221 1058 q 337 1028 296 1060 q 389 949 378 997 m 314 -25 q 263 -32 289 -31 q 211 -28 236 -33 q 194 -22 206 -26 q 169 -13 182 -18 q 147 -3 157 -8 q 132 6 136 3 q 99 38 113 19 q 74 76 85 57 q 48 147 56 110 q 38 221 40 185 q 35 323 33 272 q 43 425 38 374 q 47 483 47 454 q 53 540 47 513 q 59 570 56 556 q 69 599 63 585 q 74 607 69 604 q 81 613 78 610 q 116 632 92 625 q 168 643 140 639 q 222 648 196 647 q 265 647 249 649 q 297 642 281 646 q 326 628 314 638 q 349 601 340 617 q 361 568 357 585 q 366 512 367 540 q 363 456 365 483 q 346 326 354 390 q 336 197 338 263 q 338 169 336 185 q 342 140 339 154 q 353 114 346 125 q 372 99 360 103 q 394 97 383 96 q 417 101 406 99 q 449 86 439 106 q 449 46 460 67 q 426 20 440 31 q 396 3 411 10 q 356 -13 376 -7 q 314 -25 335 -19 z "},"j":{"ha":588,"x_min":-62,"x_max":560,"o":"m 550 949 q 549 866 560 906 q 512 796 538 826 q 448 748 486 765 q 365 732 410 731 q 313 741 339 733 q 265 765 286 749 q 229 815 240 783 q 223 857 222 835 q 231 900 224 879 q 263 967 240 936 q 314 1022 285 999 q 358 1048 333 1038 q 407 1060 382 1058 q 498 1030 457 1061 q 550 949 539 999 m 303 -222 q 213 -240 263 -235 q 113 -240 163 -244 q 20 -217 63 -235 q -44 -164 -22 -199 q -61 -112 -60 -142 q -53 -58 -62 -83 q -30 -22 -46 -39 q 7 0 -14 -4 q 36 1 14 1 q 84 0 58 1 q 133 -2 110 -1 q 163 -1 156 -3 q 208 15 186 3 q 247 44 231 26 q 271 78 261 60 q 288 117 281 97 q 313 263 313 188 q 311 414 314 339 q 270 405 299 411 q 210 394 242 399 q 151 385 179 389 q 110 382 122 381 q 70 401 88 383 q 46 438 53 418 q 39 506 36 469 q 60 572 42 543 q 83 596 69 586 q 111 613 96 606 q 164 631 136 624 q 219 642 192 638 q 340 646 279 650 q 394 648 368 643 q 449 647 421 653 q 485 629 469 643 q 519 565 511 600 q 535 465 535 517 q 536 361 536 413 q 534 218 538 289 q 518 76 531 147 q 492 -30 508 24 q 443 -126 475 -83 q 380 -185 417 -161 q 303 -222 343 -210 z "},"k":{"ha":747,"x_min":39,"x_max":742,"o":"m 228 -14 q 142 -14 185 -18 q 103 -7 122 -11 q 68 11 83 -3 q 44 53 50 26 q 42 104 39 81 q 53 332 57 218 q 50 561 49 446 q 61 719 51 640 q 96 874 71 799 q 109 907 103 890 q 126 939 115 924 q 208 1014 158 986 q 288 1045 244 1035 q 372 1051 331 1056 q 514 979 457 1040 q 539 945 528 964 q 556 907 550 926 q 560 866 561 888 q 556 824 560 844 q 536 755 549 788 q 507 690 524 722 q 436 572 476 628 q 343 469 396 515 q 337 465 342 468 q 331 460 332 463 l 331 438 q 389 485 358 463 q 447 531 419 507 q 500 576 475 553 q 553 624 525 600 q 589 649 568 638 q 638 650 611 660 q 677 622 660 640 q 701 579 694 603 q 710 523 710 553 q 699 468 710 493 q 667 423 688 443 q 626 385 647 403 q 554 338 593 357 q 474 306 515 318 q 500 253 486 279 q 531 203 514 228 q 553 172 542 188 q 581 143 565 157 q 604 126 592 133 q 632 118 617 119 q 667 122 650 115 q 703 128 685 129 q 731 104 725 125 q 721 38 742 69 q 665 -7 700 7 q 592 -14 632 -21 q 521 13 553 -7 q 468 59 492 32 q 424 114 444 86 q 384 172 403 142 q 347 232 365 201 q 348 205 347 225 q 349 163 349 185 q 350 120 350 140 q 350 93 350 100 q 338 49 347 71 q 310 14 328 28 q 270 -6 292 0 q 228 -14 249 -11 m 383 858 q 358 797 368 839 q 344 708 349 756 q 337 615 339 660 q 333 544 335 569 q 409 675 376 606 q 442 819 442 744 q 422 863 442 847 q 383 858 401 878 z "},"l":{"ha":565,"x_min":36,"x_max":547,"o":"m 501 56 q 426 -2 469 18 q 337 -26 383 -22 q 244 -15 290 -29 q 158 29 197 -1 q 99 101 122 58 q 64 188 76 143 q 48 264 53 225 q 42 343 43 303 q 38 478 39 410 q 40 613 36 546 q 54 747 43 681 q 86 876 65 813 q 110 931 96 904 q 144 979 124 958 q 231 1036 181 1015 q 331 1056 281 1057 q 388 1049 358 1054 q 442 1029 417 1043 q 494 990 469 1014 q 532 936 518 965 q 546 881 544 910 q 542 824 547 851 q 515 737 533 779 q 474 654 497 694 q 410 560 446 606 q 332 475 375 514 q 324 469 329 472 q 318 464 318 467 q 324 335 318 399 q 350 208 331 271 q 358 187 353 200 q 369 161 363 174 q 383 138 375 149 q 400 126 392 128 q 436 129 418 119 q 456 142 447 135 q 476 154 465 150 q 510 152 494 161 q 529 124 526 143 q 522 88 531 106 q 501 56 513 69 m 340 775 q 327 663 331 718 q 321 549 324 607 q 372 631 349 589 q 411 719 396 674 q 428 828 428 771 q 412 865 428 849 q 376 868 396 881 q 360 849 365 861 q 350 822 354 836 q 345 799 347 811 q 340 775 343 788 z "},"m":{"ha":1267,"x_min":35,"x_max":1258,"o":"m 274 -10 q 226 -23 253 -19 q 172 -23 199 -26 q 121 -9 144 -19 q 83 19 97 1 q 51 106 61 47 q 38 233 40 165 q 37 365 35 301 q 40 464 39 428 q 42 495 42 479 q 42 526 42 511 q 42 566 42 540 q 43 619 42 592 q 49 672 44 647 q 61 707 53 696 q 90 733 72 724 q 128 749 108 743 q 172 756 146 754 q 223 756 197 758 q 271 746 249 754 q 306 724 293 738 q 323 688 319 708 q 329 647 326 667 q 407 696 364 676 q 494 719 450 715 q 544 717 519 721 q 592 703 569 714 q 656 649 629 685 q 661 639 658 643 q 668 631 664 635 q 768 707 713 676 q 911 745 836 743 q 1047 719 986 747 q 1144 637 1107 692 q 1175 506 1182 582 q 1165 424 1172 465 q 1157 342 1158 383 q 1158 288 1156 315 q 1169 236 1160 261 q 1206 183 1181 204 q 1221 173 1213 176 q 1236 164 1229 169 q 1257 126 1258 153 q 1240 81 1256 103 q 1202 43 1225 60 q 1153 15 1179 26 q 1103 -1 1126 4 q 1038 -6 1071 -8 q 976 7 1006 -4 q 942 24 958 14 q 915 50 926 35 q 883 113 892 78 q 872 183 875 149 q 875 293 869 239 q 879 403 881 347 q 877 444 879 419 q 869 491 875 468 q 853 533 864 514 q 828 560 843 553 q 799 564 813 567 q 774 551 786 561 q 754 527 763 542 q 740 497 746 513 q 726 428 729 464 q 724 357 722 393 q 731 249 725 303 q 733 140 736 194 q 728 107 732 124 q 713 76 724 90 q 681 52 701 61 q 638 39 661 43 q 590 35 614 35 q 549 40 567 36 q 516 51 532 43 q 490 75 500 60 q 468 138 472 103 q 467 204 464 172 q 477 309 469 257 q 482 414 485 361 q 474 475 479 444 q 453 532 468 506 q 436 555 446 544 q 413 568 426 565 q 385 562 399 571 q 365 542 372 553 q 344 493 350 519 q 335 440 338 467 q 328 301 328 371 q 335 161 328 232 q 340 112 338 138 q 336 63 343 86 q 313 19 331 39 q 274 -10 296 0 z "},"n":{"ha":792,"x_min":36,"x_max":775,"o":"m 735 -7 q 644 -41 696 -33 q 549 -31 593 -49 q 502 -3 524 -21 q 467 38 481 14 q 447 96 451 64 q 444 160 443 128 q 453 272 447 217 q 463 383 460 326 q 463 435 464 408 q 456 483 461 463 q 438 514 450 504 q 403 513 425 524 q 373 489 386 504 q 353 457 360 474 q 349 449 351 454 q 346 442 346 444 q 347 306 346 374 q 350 169 349 239 q 349 114 350 142 q 340 58 349 86 q 309 5 331 29 q 260 -31 288 -19 q 219 -40 244 -37 q 165 -41 193 -42 q 112 -35 138 -40 q 72 -24 86 -31 q 43 6 51 -15 q 37 33 38 18 q 36 63 36 47 q 39 111 36 75 q 44 188 42 147 q 50 265 47 229 q 53 313 53 301 q 55 380 54 346 q 53 447 56 414 q 49 492 51 460 q 44 561 47 525 q 40 630 42 597 q 40 675 39 663 q 45 700 42 688 q 56 724 49 713 q 111 760 76 749 q 215 776 161 781 q 269 765 242 775 q 311 733 296 754 q 332 691 325 714 q 342 644 339 668 q 343 622 342 639 q 344 600 344 606 q 417 663 376 636 q 504 700 458 689 q 572 707 536 708 q 639 689 608 706 q 677 660 660 678 q 704 619 694 643 q 727 544 719 583 q 733 465 735 506 q 725 328 732 396 q 721 193 718 261 q 724 180 721 189 q 732 161 728 171 q 740 142 736 151 q 747 129 744 133 q 763 99 754 114 q 772 65 771 83 q 735 -7 775 19 z "},"o":{"ha":764,"x_min":18,"x_max":749,"o":"m 515 1 q 385 -16 453 -18 q 254 6 317 -14 q 168 44 210 19 q 97 106 126 69 q 55 178 71 138 q 32 260 39 219 q 23 403 18 331 q 50 542 28 475 q 105 642 67 596 q 192 717 143 689 q 325 767 253 753 q 468 771 397 781 q 567 743 518 764 q 651 686 615 722 q 700 622 681 658 q 728 546 719 585 q 737 333 749 442 q 678 131 725 224 q 609 50 654 83 q 515 1 564 17 m 386 218 q 450 243 421 217 q 483 297 472 265 q 496 358 493 328 q 497 408 499 381 q 488 461 494 435 q 468 508 481 488 q 436 539 456 529 q 397 549 417 549 q 357 542 376 549 q 322 522 338 535 q 296 490 306 508 q 277 434 283 467 q 272 367 271 401 q 281 302 272 333 q 307 251 289 271 q 342 227 321 236 q 386 218 364 218 z "},"p":{"ha":788,"x_min":28,"x_max":768,"o":"m 276 -193 q 226 -217 256 -207 q 167 -230 197 -226 q 109 -228 138 -233 q 61 -207 81 -222 q 43 -188 50 -199 q 33 -167 36 -178 q 28 -126 28 -147 q 29 -85 28 -106 q 40 25 32 -29 q 50 135 47 79 q 53 306 54 221 q 51 478 53 392 q 46 588 51 533 q 38 699 40 643 q 67 764 36 738 q 127 794 93 785 q 193 800 161 803 q 238 791 215 799 q 275 768 260 783 q 299 729 290 751 q 314 685 308 707 q 349 714 329 701 q 389 736 368 726 q 506 759 443 758 q 622 736 569 760 q 722 651 685 708 q 755 579 744 618 q 767 501 765 540 q 751 338 768 419 q 724 251 740 293 q 679 174 707 210 q 594 101 644 129 q 486 72 544 76 q 410 82 449 69 q 343 118 372 94 q 349 4 349 61 q 335 -106 350 -53 q 313 -154 328 -131 q 276 -193 297 -178 m 349 325 q 353 294 350 310 q 364 264 357 278 q 381 241 371 250 q 407 232 392 232 q 427 238 418 232 q 443 250 436 243 q 456 270 450 260 q 467 292 461 281 q 488 362 478 319 q 500 449 497 404 q 497 533 503 493 q 474 599 492 574 q 426 628 454 622 q 376 613 399 633 q 350 574 360 599 q 343 524 344 558 q 342 450 342 489 q 345 376 343 411 q 349 325 347 342 z "},"q":{"ha":813,"x_min":17,"x_max":790,"o":"m 707 -303 q 649 -340 682 -326 q 583 -354 617 -353 q 516 -346 549 -356 q 458 -312 483 -336 q 415 -239 426 -282 q 403 -87 394 -164 q 425 67 411 -10 q 391 38 408 51 q 354 15 374 25 q 256 0 307 -7 q 194 20 224 6 q 139 56 164 35 q 53 179 83 106 q 23 301 29 238 q 28 428 17 365 q 92 601 40 522 q 180 685 125 651 q 294 726 235 718 q 342 724 314 729 q 397 710 369 719 q 450 688 425 701 q 488 660 475 674 q 498 706 492 682 q 521 744 504 729 q 557 761 536 758 q 597 763 578 764 q 656 761 626 763 q 713 753 685 760 q 749 737 732 747 q 778 710 767 726 q 790 650 790 689 q 785 567 790 611 q 771 483 779 524 q 758 418 763 442 q 722 228 739 322 q 694 38 706 133 q 689 -20 692 8 q 686 -78 686 -49 q 687 -97 686 -86 q 690 -117 688 -107 q 695 -135 692 -126 q 706 -146 699 -143 q 733 -155 718 -151 q 756 -169 747 -158 q 762 -193 763 -179 q 758 -218 761 -207 q 707 -303 744 -269 m 318 196 q 360 172 333 171 q 407 193 388 172 q 422 215 415 203 q 433 239 428 226 q 468 365 456 299 q 479 422 475 393 q 482 481 483 451 q 481 509 482 494 q 472 538 479 524 q 429 569 460 565 q 375 551 399 574 q 344 508 356 533 q 325 457 332 482 q 310 384 315 421 q 303 311 304 347 q 303 251 301 282 q 318 196 304 221 z "},"r":{"ha":675,"x_min":24,"x_max":661,"o":"m 296 -22 q 210 -45 256 -42 q 122 -33 164 -49 q 95 -21 108 -29 q 75 0 82 -12 q 65 33 67 15 q 67 67 64 50 q 76 294 79 179 q 50 519 74 408 q 41 560 47 533 q 31 616 35 588 q 25 671 26 644 q 31 710 24 697 q 46 727 36 721 q 67 739 56 733 q 119 761 92 753 q 176 771 147 769 q 215 767 196 771 q 249 753 233 764 q 268 734 260 746 q 283 710 276 722 q 299 670 293 690 q 307 631 304 650 q 355 677 329 656 q 413 711 381 699 q 472 723 440 722 q 532 713 504 724 q 601 663 572 697 q 644 589 631 629 q 660 510 658 551 q 654 429 661 469 q 648 392 651 411 q 635 358 644 374 q 599 325 622 336 q 540 309 571 311 q 483 317 508 307 q 442 347 457 326 q 429 400 426 368 q 439 443 432 422 q 449 486 446 464 q 445 517 450 500 q 429 540 440 535 q 401 537 414 547 q 382 511 389 526 q 359 423 361 471 q 360 331 357 375 q 365 226 363 278 q 364 122 367 175 q 363 83 364 103 q 356 43 361 63 q 332 4 349 21 q 296 -22 315 -12 z "},"s":{"ha":685,"x_min":19,"x_max":664,"o":"m 388 -31 q 279 -37 335 -37 q 171 -25 224 -36 q 133 -15 151 -21 q 99 0 115 -10 q 54 37 72 14 q 28 86 36 60 q 22 140 19 113 q 40 193 24 168 q 78 231 56 215 q 126 253 101 246 q 176 257 151 258 q 200 254 183 257 q 235 249 217 251 q 269 244 253 246 q 293 243 286 242 q 319 269 313 247 q 313 308 326 292 q 281 332 300 324 q 232 353 257 344 q 182 371 207 361 q 133 392 157 381 q 92 422 110 404 q 53 479 65 447 q 42 546 42 511 q 56 614 43 581 q 92 675 68 647 q 166 734 124 711 q 253 772 208 757 q 423 802 335 800 q 594 781 511 804 q 635 758 619 774 q 657 717 650 742 q 664 667 664 693 q 656 617 664 642 q 635 575 649 593 q 620 560 628 567 q 603 551 613 554 q 548 547 575 544 q 493 551 521 549 q 438 553 465 554 q 383 544 411 551 q 356 532 369 540 q 339 508 342 524 q 347 476 336 492 q 371 449 358 460 q 453 394 407 415 q 540 344 500 372 q 598 293 572 324 q 635 226 624 263 q 638 147 646 186 q 606 76 629 110 q 551 22 583 42 q 473 -12 515 -1 q 388 -31 431 -24 z "},"t":{"ha":700,"x_min":3,"x_max":688,"o":"m 475 -35 q 410 -35 443 -39 q 347 -19 378 -32 q 288 15 315 -7 q 242 65 261 38 q 200 159 213 108 q 182 261 188 210 q 177 399 175 331 q 185 536 179 468 q 147 533 169 533 q 101 533 125 532 q 57 540 78 535 q 26 557 36 546 q 6 619 3 581 q 28 685 8 658 q 57 708 39 700 q 94 719 75 717 q 147 720 121 722 q 201 715 174 718 q 208 776 203 733 q 221 865 214 818 q 236 951 228 911 q 253 1008 244 992 q 283 1038 264 1028 q 322 1053 303 1049 q 386 1058 354 1060 q 450 1050 418 1057 q 528 1007 496 1042 q 550 968 544 989 q 551 915 554 951 q 541 837 547 878 q 528 758 535 796 q 518 704 521 721 q 534 705 522 704 q 559 706 546 706 q 584 706 572 706 q 600 706 596 706 q 634 701 617 704 q 664 688 651 699 q 682 658 676 675 q 686 624 688 642 q 676 592 685 607 q 653 567 668 576 q 616 550 636 556 q 576 542 596 544 q 534 539 556 539 q 490 539 513 539 q 474 389 479 464 q 478 239 468 314 q 484 207 481 224 q 497 178 488 190 q 516 165 504 169 q 539 163 528 161 q 573 173 557 165 q 606 188 589 181 q 644 185 626 197 q 664 149 663 172 q 653 105 665 125 q 629 67 642 85 q 561 1 601 29 q 475 -35 521 -28 z "},"u":{"ha":828,"x_min":19,"x_max":811,"o":"m 335 -17 q 238 -19 285 -29 q 151 17 190 -10 q 83 83 111 43 q 43 174 54 124 q 28 390 19 279 q 65 607 38 501 q 83 663 72 635 q 115 710 94 690 q 152 730 131 724 q 194 739 174 736 q 233 740 214 740 q 269 733 251 739 q 313 710 296 726 q 334 649 332 689 q 330 563 336 608 q 314 474 324 518 q 299 403 304 431 q 287 322 292 363 q 289 242 282 282 q 305 197 292 219 q 340 175 318 175 q 368 185 356 174 q 390 207 381 196 q 428 284 417 242 q 447 369 440 326 q 458 501 457 436 q 465 632 458 565 q 507 704 469 678 q 548 722 526 717 q 593 731 569 728 q 647 728 618 732 q 703 713 676 724 q 750 685 729 701 q 778 644 771 668 q 783 528 794 588 q 760 411 772 469 q 743 317 750 364 q 738 222 736 269 q 740 176 738 199 q 753 132 743 153 q 766 112 758 121 q 785 99 774 103 q 807 75 803 90 q 805 44 811 60 q 785 16 799 29 q 753 -3 771 3 q 649 -10 700 -21 q 553 38 592 -1 q 500 131 514 75 q 475 84 489 107 q 442 42 461 61 q 393 5 421 19 q 335 -17 365 -10 z "},"v":{"ha":682,"x_min":22,"x_max":665,"o":"m 410 -10 q 327 -17 369 -19 q 246 1 285 -14 q 209 17 226 8 q 176 40 192 26 q 128 110 150 64 q 91 215 107 157 q 63 339 75 274 q 42 467 50 404 q 30 583 35 529 q 24 674 25 638 q 22 701 22 688 q 28 728 22 715 q 57 761 38 747 q 97 779 76 775 q 157 787 122 785 q 225 785 192 789 q 287 771 258 782 q 329 738 315 760 q 344 701 340 721 q 349 660 347 681 q 356 474 353 567 q 383 290 358 381 q 394 260 389 275 q 410 232 400 244 q 421 219 414 225 q 435 217 428 214 q 450 238 444 221 q 458 265 456 254 q 465 319 461 279 q 474 404 469 358 q 481 490 478 450 q 485 544 483 531 q 489 582 486 557 q 496 633 492 607 q 506 683 500 660 q 519 717 513 707 q 560 740 535 736 q 587 742 572 743 q 615 737 601 742 q 640 724 628 732 q 657 704 651 715 q 664 669 665 688 q 661 631 663 650 q 633 432 650 531 q 592 236 617 333 q 562 139 579 188 q 513 51 544 90 q 410 -10 471 3 z "},"w":{"ha":1119,"x_min":26,"x_max":1089,"o":"m 304 -35 q 192 -8 244 -37 q 151 19 169 3 q 117 56 132 36 q 70 139 88 93 q 47 231 53 185 q 46 251 47 235 q 43 272 44 268 q 31 463 26 367 q 50 656 36 560 q 60 700 54 678 q 81 738 65 722 q 116 758 93 751 q 166 767 139 765 q 219 768 193 769 q 264 763 246 767 q 300 753 282 760 q 331 735 318 747 q 347 712 342 725 q 356 685 353 699 q 357 642 358 664 q 353 600 356 621 q 335 467 343 533 q 326 333 326 400 q 328 302 326 321 q 333 265 329 283 q 344 231 338 246 q 363 210 351 215 q 397 210 379 199 q 425 239 414 222 q 451 303 443 269 q 461 374 458 338 q 460 480 464 426 q 461 586 457 533 q 466 617 463 601 q 478 646 469 632 q 498 667 485 658 q 526 681 511 676 q 575 693 550 690 q 625 696 600 696 q 673 690 649 694 q 717 671 697 685 q 753 624 740 653 q 769 567 767 596 q 770 528 771 556 q 768 469 769 500 q 765 410 767 438 q 763 372 763 382 q 763 324 761 349 q 768 276 764 300 q 778 235 771 256 q 801 200 786 214 q 840 182 817 185 q 883 186 864 179 q 924 222 910 196 q 945 281 939 247 q 952 349 951 314 q 951 413 953 385 q 944 490 949 451 q 931 565 939 528 q 921 604 928 579 q 909 656 914 629 q 903 707 904 683 q 910 743 901 731 q 944 773 921 763 q 989 781 967 783 q 1039 750 1021 779 q 1060 703 1053 728 q 1072 651 1067 678 q 1085 549 1082 600 q 1089 446 1089 497 q 1087 346 1089 396 q 1076 247 1085 296 q 1056 169 1069 207 q 1021 97 1043 131 q 919 7 981 35 q 792 -16 857 -21 q 671 26 728 -11 q 583 129 614 63 q 563 188 571 158 q 506 89 539 136 q 428 10 472 42 q 368 -21 400 -10 q 304 -35 336 -32 z "},"x":{"ha":676,"x_min":17,"x_max":661,"o":"m 579 19 q 526 -2 554 7 q 469 -8 497 -11 q 415 21 436 -6 q 394 49 408 28 q 365 94 381 69 q 336 140 350 118 q 318 168 322 161 q 292 139 311 160 q 249 94 272 118 q 206 49 226 69 q 179 21 186 28 q 163 7 171 14 q 143 -4 154 0 q 110 -6 128 -11 q 76 6 92 -1 q 51 22 64 13 q 35 46 39 32 q 35 75 31 58 q 49 108 40 92 q 71 140 58 125 q 93 165 83 156 q 119 191 99 172 q 162 231 139 210 q 204 272 185 253 q 229 299 224 292 q 142 378 185 336 q 65 468 100 419 q 31 527 46 496 q 18 590 17 558 q 37 650 19 622 q 75 701 54 678 q 117 735 92 721 q 169 749 142 750 q 224 731 197 747 q 271 696 250 715 q 334 619 306 660 q 388 536 363 579 q 417 578 397 549 q 458 639 436 607 q 502 698 481 671 q 538 732 524 725 q 578 733 557 740 q 618 703 600 724 q 639 660 636 683 q 638 633 642 647 q 629 608 635 619 q 608 574 619 590 q 583 542 596 557 q 576 536 582 539 q 575 533 575 535 q 574 532 575 532 q 574 531 574 532 l 574 529 q 556 506 569 522 q 527 473 543 490 q 497 440 511 456 q 478 419 483 425 q 538 347 508 383 q 594 271 568 310 q 626 219 611 246 q 651 164 640 192 q 660 124 658 144 q 653 83 661 103 q 623 45 643 61 q 579 19 603 29 z "},"y":{"ha":803,"x_min":22,"x_max":768,"o":"m 575 -201 q 488 -231 535 -222 q 396 -240 442 -240 q 317 -234 356 -240 q 242 -210 278 -228 q 206 -186 222 -200 q 178 -153 189 -172 q 162 -77 158 -121 q 188 -1 165 -33 q 208 18 196 10 q 233 29 219 26 q 262 30 240 31 q 308 28 283 29 q 355 26 333 28 q 383 26 376 25 q 447 55 417 33 q 492 107 476 76 q 509 166 506 135 q 514 229 513 197 q 511 225 514 231 q 465 174 490 197 q 408 133 439 151 q 346 108 379 118 q 279 97 313 99 q 181 113 228 94 q 97 167 133 131 q 67 205 79 183 q 46 250 54 226 q 24 363 26 304 q 29 481 22 422 q 44 572 36 526 q 67 661 53 617 q 81 706 74 683 q 103 746 89 728 q 137 769 115 761 q 183 780 158 778 q 233 778 208 782 q 278 769 258 775 q 305 758 292 765 q 328 742 318 751 q 356 690 349 721 q 357 644 360 667 q 347 597 354 621 q 326 501 335 550 q 318 404 318 453 q 321 368 318 389 q 328 328 324 347 q 342 294 333 310 q 367 274 351 279 q 391 276 378 269 q 413 290 404 282 q 444 335 432 310 q 465 388 457 360 q 496 510 486 447 q 511 635 506 572 q 510 668 513 651 q 513 700 508 685 q 538 736 517 726 q 573 749 551 743 q 619 756 594 754 q 665 756 643 758 q 700 746 686 754 q 719 727 711 739 q 735 703 728 715 q 749 665 744 685 q 757 625 754 644 q 765 522 765 574 q 767 419 765 471 q 764 263 768 340 q 747 107 760 185 q 725 3 739 54 q 683 -94 711 -49 q 636 -154 664 -126 q 575 -201 608 -182 z "},"z":{"ha":703,"x_min":25,"x_max":682,"o":"m 633 -1 q 611 -8 626 -6 q 578 -12 596 -11 q 545 -14 561 -14 q 521 -14 529 -14 q 476 -12 510 -14 q 403 -8 442 -10 q 330 -3 364 -6 q 285 -1 296 -1 q 254 -2 276 -1 q 207 -4 232 -3 q 160 -6 182 -6 q 131 -3 139 -6 q 96 15 111 1 q 72 46 81 29 q 56 93 63 65 q 50 149 50 121 q 56 204 50 178 q 76 247 63 231 q 115 281 93 267 q 161 308 138 296 q 256 365 210 336 q 343 426 301 393 q 381 460 363 442 q 413 499 399 478 q 422 515 418 506 q 418 531 425 525 q 384 535 408 538 q 347 529 360 532 q 270 513 308 522 q 193 493 232 504 q 157 483 175 488 q 119 478 139 478 q 94 479 107 476 q 71 489 82 482 q 43 526 53 501 q 29 582 33 551 q 26 642 25 613 q 29 694 26 672 q 38 740 32 717 q 58 782 43 763 q 84 801 68 794 q 117 810 100 807 q 171 811 131 811 q 256 809 211 811 q 340 805 300 807 q 396 803 381 803 q 447 801 421 801 q 500 801 474 801 q 551 796 526 800 q 600 781 576 792 q 648 741 629 767 q 674 683 667 715 q 679 617 682 651 q 664 553 676 583 q 589 432 638 489 q 491 331 544 378 q 385 236 438 285 q 467 238 425 238 q 550 231 508 238 q 594 223 572 228 q 633 204 615 218 q 653 179 646 194 q 663 149 660 164 q 666 110 665 132 q 664 67 667 89 q 653 26 661 44 q 633 -1 646 8 z "},"{":{"ha":549,"x_min":31,"x_max":594,"o":"m 533 -186 q 497 -199 517 -196 q 457 -200 476 -201 q 335 -181 396 -199 q 224 -131 275 -164 q 179 -92 200 -114 q 146 -43 158 -69 q 127 18 132 -14 q 121 82 122 50 q 122 184 118 133 q 119 286 126 235 q 76 389 111 342 q 69 399 75 392 q 58 413 64 406 q 46 426 51 419 q 39 436 40 433 q 33 457 31 446 q 39 473 35 465 q 50 488 43 481 q 72 509 61 499 q 90 533 82 519 q 117 629 117 578 q 110 722 117 676 q 101 815 104 768 q 104 896 100 856 q 122 972 108 936 q 197 1091 147 1038 q 308 1176 246 1144 q 407 1208 356 1200 q 447 1210 426 1211 q 485 1201 467 1210 q 533 1154 518 1189 q 553 1108 546 1132 q 565 1060 561 1085 q 567 1026 568 1043 q 558 993 565 1008 q 540 967 551 978 q 514 946 528 956 q 470 919 493 932 q 431 888 447 907 q 413 859 419 875 q 404 826 407 843 q 399 756 397 790 q 396 685 400 721 q 372 594 392 639 q 317 517 351 549 q 280 490 300 501 q 240 468 260 479 q 301 436 271 453 q 357 396 332 419 q 376 372 368 385 q 390 343 385 358 q 399 294 397 319 q 399 243 400 268 q 400 192 399 218 q 408 143 401 167 q 424 109 414 125 q 449 82 433 93 q 500 50 472 63 q 551 18 528 38 q 585 -31 575 -3 q 592 -89 594 -60 q 575 -144 590 -118 q 533 -186 560 -171 z "},"}":{"ha":549,"x_min":-46,"x_max":518,"o":"m 343 -117 q 274 -157 317 -137 q 186 -188 232 -176 q 96 -201 140 -200 q 21 -187 51 -203 q -15 -160 0 -178 q -37 -121 -31 -142 q -42 -56 -46 -90 q -18 3 -37 -22 q 10 28 -6 18 q 44 48 26 39 q 78 67 61 57 q 108 89 94 76 q 142 146 132 111 q 149 205 149 175 q 150 264 150 235 q 152 310 150 288 q 164 354 154 333 q 185 389 171 374 q 215 415 200 404 q 262 443 238 431 q 310 468 286 456 q 267 492 288 479 q 228 521 246 504 q 182 585 200 549 q 157 658 164 621 q 151 747 149 703 q 144 833 153 790 q 134 865 142 849 q 115 892 126 881 q 74 922 97 910 q 31 950 51 935 q 6 971 17 960 q -11 997 -6 982 q -17 1038 -18 1014 q -10 1088 -17 1063 q 6 1135 -4 1113 q 28 1172 17 1158 q 64 1201 44 1193 q 108 1211 85 1211 q 154 1207 132 1211 q 265 1164 213 1196 q 356 1088 317 1132 q 410 1009 386 1051 q 442 919 433 967 q 448 842 449 881 q 443 764 447 803 q 435 689 440 726 q 433 615 431 651 q 445 562 436 588 q 471 515 454 536 q 498 489 483 501 q 515 457 513 476 q 510 436 518 446 q 504 428 508 433 q 495 417 500 422 q 485 406 490 411 q 479 399 481 400 q 443 338 456 371 q 428 268 431 304 q 426 206 425 238 q 428 144 426 175 q 429 82 429 113 q 424 21 429 51 q 396 -56 417 -19 q 343 -117 375 -93 z "},"~":{"ha":847,"x_min":29,"x_max":822,"o":"m 218 247 q 192 235 207 238 q 163 233 178 233 q 113 243 138 236 q 68 265 88 250 q 35 307 43 281 q 29 342 29 324 q 32 376 29 360 q 58 451 39 415 q 104 514 76 486 q 152 550 125 535 q 208 571 179 565 q 304 563 258 579 q 379 519 344 547 q 449 465 414 492 q 478 449 463 456 q 508 440 493 442 q 541 446 525 439 q 569 464 557 453 q 603 500 589 479 q 629 543 617 521 q 646 567 636 556 q 668 585 656 578 q 713 594 689 597 q 753 584 733 593 q 788 563 772 575 q 819 500 817 538 q 815 449 822 474 q 796 400 807 424 q 757 335 779 367 q 707 281 735 304 q 647 247 679 257 q 579 239 615 236 q 456 272 511 243 q 386 318 419 292 q 317 367 353 344 q 285 369 301 376 q 260 344 268 361 q 252 324 257 338 q 242 294 247 310 q 230 265 236 278 q 218 247 224 251 z "}," ":{"ha":417,"x_min":0,"x_max":0,"o":""},"¢":{"ha":624,"x_min":35,"x_max":592,"o":"m 390 14 q 354 1 378 0 q 315 10 331 1 q 293 39 297 18 q 294 86 289 63 q 301 133 299 110 q 234 145 268 136 q 172 172 200 154 q 85 272 115 208 q 49 379 58 322 q 36 494 39 436 q 41 585 35 539 q 64 674 47 632 q 153 792 93 743 q 285 857 214 842 q 283 882 285 865 q 280 917 281 899 q 280 951 279 935 q 285 974 281 967 q 315 993 293 992 q 357 988 338 994 q 383 965 376 981 q 388 951 386 958 q 390 938 389 944 q 390 898 392 918 q 386 858 389 878 q 461 833 425 851 q 525 786 497 814 q 558 745 543 767 q 581 699 572 724 q 585 663 588 681 q 573 632 582 646 q 548 608 564 618 q 514 597 532 599 q 478 611 493 596 q 460 637 467 622 q 440 661 453 651 q 415 669 429 668 q 390 664 401 669 q 355 631 367 656 q 338 576 343 607 q 331 514 332 546 q 332 457 331 482 q 338 415 332 438 q 353 369 343 392 q 376 330 363 347 q 408 307 390 313 q 439 306 424 303 q 468 315 454 308 q 503 338 485 326 q 542 346 522 349 q 569 334 558 343 q 586 313 581 325 q 590 285 592 300 q 581 257 589 269 q 499 182 549 213 q 397 140 450 151 q 400 112 399 129 q 402 75 401 94 q 400 39 403 56 q 390 14 397 22 z "},"£":{"ha":886,"x_min":29,"x_max":874,"o":"m 707 -43 q 595 -43 653 -53 q 489 -7 538 -33 q 443 21 465 4 q 404 58 421 38 q 337 18 374 35 q 263 -7 300 1 q 173 -10 219 -17 q 90 19 126 -4 q 52 58 67 35 q 33 107 38 81 q 36 160 29 133 q 61 208 43 186 q 86 233 72 222 q 115 250 100 243 q 201 269 156 269 q 286 253 246 268 q 270 347 286 301 q 232 436 254 393 q 201 435 221 436 q 162 436 182 435 q 124 442 142 438 q 99 454 107 446 q 85 492 86 468 q 94 532 85 517 q 111 549 99 540 q 144 551 126 556 q 179 543 163 547 q 145 633 160 588 q 124 725 131 678 q 122 784 121 754 q 129 842 122 814 q 156 901 138 874 q 199 953 175 929 q 242 986 218 972 q 292 1010 267 1000 q 399 1031 343 1028 q 507 1024 454 1033 q 562 1008 535 1017 q 613 985 589 1000 q 665 931 644 965 q 694 861 686 897 q 699 803 700 835 q 690 743 699 772 q 666 690 682 714 q 626 653 650 665 q 572 645 601 640 q 526 674 542 650 q 517 703 518 686 q 518 736 517 721 q 525 783 521 760 q 524 831 529 807 q 506 863 518 850 q 476 883 493 876 q 442 886 460 889 q 411 869 425 883 q 394 847 400 860 q 386 821 389 835 q 385 776 383 799 q 390 733 386 754 q 422 640 400 685 q 464 551 444 596 q 522 548 481 549 q 608 546 563 547 q 692 542 653 544 q 747 532 732 539 q 774 495 772 521 q 758 449 775 469 q 731 431 750 436 q 688 423 711 425 q 643 422 665 421 q 607 424 621 422 q 553 428 579 426 q 499 433 526 431 q 509 328 508 382 q 499 224 510 275 q 581 197 538 204 q 668 196 625 189 q 734 213 701 200 q 800 224 767 225 q 829 217 815 222 q 853 201 843 213 q 871 163 868 186 q 871 119 874 140 q 855 63 868 92 q 821 14 842 35 q 769 -23 799 -10 q 707 -43 739 -36 m 151 97 q 185 92 164 86 q 221 108 206 99 q 239 123 231 115 q 254 139 247 131 q 226 152 242 144 q 195 163 210 160 q 167 165 181 167 q 147 151 154 164 q 140 124 140 140 q 151 97 140 107 z "},"¤":{"ha":746,"x_min":32,"x_max":717,"o":"m 693 129 q 660 97 679 113 q 619 82 642 82 q 592 93 604 83 q 571 114 581 103 q 540 161 554 136 q 519 214 526 186 q 422 180 475 189 q 317 179 368 171 q 236 207 275 186 q 217 165 229 185 q 192 128 206 146 q 168 104 182 115 q 139 94 154 93 q 96 114 115 97 q 63 150 76 131 q 51 172 56 160 q 50 196 46 185 q 67 219 54 204 q 96 249 81 233 q 126 279 111 265 q 146 300 140 293 q 122 374 129 335 q 118 453 115 414 q 127 522 121 488 q 149 589 133 557 q 146 596 150 592 q 139 603 142 600 q 118 624 133 608 q 86 656 103 639 q 56 688 69 672 q 38 711 42 704 q 37 735 32 722 q 49 760 42 749 q 90 799 64 779 q 140 813 117 819 q 169 793 154 808 q 195 759 183 778 q 215 719 207 740 q 228 685 224 699 q 305 719 264 707 q 386 732 346 732 q 449 724 418 731 q 507 701 479 717 q 527 749 514 726 q 556 793 540 772 q 580 817 565 806 q 610 826 594 828 q 652 807 633 824 q 686 771 671 790 q 698 749 693 761 q 697 725 703 736 q 679 701 693 717 q 649 668 665 685 q 617 636 632 651 q 596 615 601 621 q 617 565 610 592 q 629 511 625 539 q 629 407 636 460 q 600 308 622 354 q 603 301 599 304 q 610 294 607 297 q 631 273 615 288 q 663 242 646 258 q 693 209 679 225 q 711 186 707 193 q 709 158 717 175 q 693 129 701 140 m 319 400 q 340 370 326 382 q 368 354 353 358 q 399 354 383 350 q 426 372 414 358 q 447 413 442 390 q 453 460 453 436 q 443 529 456 497 q 411 569 433 554 q 363 574 389 585 q 338 552 347 567 q 321 522 328 538 q 311 488 315 506 q 308 453 307 471 q 312 426 310 439 q 319 400 314 413 z "},"¥":{"ha":928,"x_min":38,"x_max":903,"o":"m 500 -10 q 464 -14 485 -14 q 422 -10 443 -14 q 381 1 400 -6 q 351 19 363 8 q 338 40 342 28 q 331 64 333 53 q 327 98 328 81 q 328 132 326 115 q 248 130 288 131 q 171 139 208 129 q 139 154 150 143 q 129 185 131 165 q 135 218 128 206 q 159 241 142 233 q 193 251 176 249 q 269 258 231 258 q 346 260 307 258 q 349 272 349 267 q 351 285 350 278 q 293 283 322 285 q 235 283 264 282 q 206 285 222 283 q 172 289 189 286 q 142 299 156 292 q 124 317 129 306 q 120 343 119 325 q 125 371 121 361 q 151 394 132 386 q 195 406 171 403 q 244 410 219 410 q 286 411 268 411 q 336 413 311 413 q 386 413 361 413 q 397 449 392 432 q 408 486 401 467 q 341 458 376 469 q 269 443 306 446 q 216 445 243 440 q 165 461 189 450 q 110 503 132 476 q 66 579 81 536 q 46 667 51 622 q 42 796 38 731 q 60 924 46 861 q 81 969 65 949 q 115 1006 96 990 q 166 1031 139 1022 q 221 1039 193 1039 q 274 1037 247 1039 q 324 1025 300 1035 q 356 1007 340 1018 q 376 979 371 996 q 379 942 383 961 q 368 906 375 924 q 334 783 347 844 q 319 657 321 721 q 319 624 319 643 q 323 588 319 606 q 333 554 326 569 q 351 533 339 539 q 374 533 363 528 q 394 546 386 539 q 423 581 411 561 q 446 619 435 600 q 494 728 474 672 q 538 839 514 785 q 576 912 553 876 q 631 972 599 947 q 673 996 650 988 q 719 1004 696 1004 q 764 1002 742 1006 q 808 993 786 999 q 846 981 828 989 q 879 960 864 974 q 903 904 903 936 q 899 874 903 889 q 888 843 894 858 q 858 776 872 810 q 825 711 843 743 q 750 563 785 638 q 686 408 715 488 q 726 406 706 407 q 764 397 746 404 q 790 381 781 393 q 802 345 801 367 q 792 310 803 324 q 765 294 783 299 q 724 288 746 289 q 680 286 701 286 q 644 286 658 286 q 640 272 642 279 q 636 258 639 265 q 681 257 658 257 q 725 254 703 257 q 763 249 744 253 q 796 232 782 244 q 810 200 808 221 q 806 164 813 179 q 787 147 800 153 q 757 138 774 140 q 724 134 740 135 q 694 133 707 133 l 594 133 q 569 70 582 101 q 533 13 556 39 q 500 -10 519 -3 z "},"­":{"ha":0,"x_min":0,"x_max":0,"o":""},"±":{"ha":697,"x_min":36,"x_max":663,"o":"m 422 338 q 383 321 406 325 q 340 318 361 317 q 309 323 325 319 q 281 336 293 326 q 263 363 269 347 q 254 393 257 378 q 251 419 253 400 q 249 459 250 438 q 247 500 249 481 q 246 526 246 519 q 198 524 226 525 q 140 526 169 524 q 86 537 111 529 q 50 560 61 544 q 38 599 39 576 q 36 642 36 621 q 44 681 38 661 q 65 713 50 700 q 99 730 81 724 q 138 739 118 736 q 188 743 163 742 q 238 746 213 744 q 235 789 236 763 q 237 842 235 815 q 246 891 239 868 q 267 925 253 914 q 306 939 283 938 q 349 940 328 940 q 388 934 368 940 q 419 914 407 928 q 438 881 432 899 q 449 843 444 863 q 455 794 453 819 q 458 744 457 769 q 483 744 465 744 q 522 741 501 743 q 561 737 543 739 q 586 733 579 735 q 617 722 601 731 q 643 697 633 713 q 656 667 651 685 q 660 631 660 650 q 656 594 660 611 q 643 564 651 576 q 625 546 636 553 q 601 536 614 539 q 533 527 568 526 q 464 528 499 528 q 463 501 464 521 q 462 461 463 482 q 460 421 461 440 q 457 394 458 401 q 444 363 453 378 q 422 338 436 347 m 286 14 q 230 12 264 14 q 161 11 196 10 q 97 20 126 13 q 54 46 67 28 q 40 85 42 63 q 40 128 39 107 q 47 167 40 147 q 69 199 54 186 q 112 219 88 214 q 160 228 136 225 q 247 233 186 231 q 374 234 307 235 q 502 230 442 233 q 589 221 563 226 q 621 208 606 217 q 646 183 636 199 q 658 153 654 171 q 663 117 663 136 q 659 80 663 97 q 647 50 656 63 q 628 33 640 39 q 604 22 617 26 q 542 15 588 17 q 447 13 497 13 q 350 13 396 13 q 286 14 304 14 z "},"×":{"ha":589,"x_min":35,"x_max":556,"o":"m 494 183 q 465 165 482 172 q 433 160 449 157 q 397 174 414 163 q 365 200 379 186 q 333 233 349 217 q 300 268 317 250 q 281 250 294 263 q 251 224 267 238 q 219 198 235 210 q 199 182 204 186 q 166 169 183 174 q 132 168 149 165 q 102 181 118 171 q 73 204 86 190 q 50 233 60 218 q 38 263 40 249 q 38 286 35 274 q 47 310 40 299 q 68 339 56 325 q 93 367 81 353 l 151 425 q 106 470 128 447 q 67 519 85 493 q 51 546 58 532 q 42 575 44 560 q 47 607 40 590 q 62 627 51 615 q 85 650 72 639 q 110 669 97 661 q 132 681 122 678 q 181 681 156 689 q 210 666 196 675 q 239 646 225 657 q 274 615 257 631 q 306 582 290 599 q 337 613 318 594 q 376 647 356 631 q 419 674 397 664 q 457 682 440 685 q 493 663 476 678 q 524 633 510 649 q 547 600 538 618 q 553 563 556 582 q 541 526 550 543 q 521 494 532 510 q 490 456 506 474 q 456 419 474 438 q 472 400 460 414 q 496 370 483 386 q 519 340 508 354 q 535 319 531 325 q 547 285 543 304 q 546 250 550 267 q 526 213 540 231 q 494 183 511 196 z "},"÷":{"ha":667,"x_min":22,"x_max":646,"o":"m 428 650 q 408 613 422 628 q 374 590 393 597 q 331 583 354 583 q 288 593 308 583 q 244 642 256 608 q 249 707 232 675 q 305 747 265 739 q 378 743 344 756 q 406 726 393 736 q 426 700 419 715 q 428 650 436 674 m 269 321 q 213 319 247 321 q 143 318 178 317 q 78 327 108 319 q 36 353 49 335 q 24 392 25 369 q 22 435 22 414 q 30 474 24 454 q 51 506 36 493 q 94 526 71 521 q 142 535 118 532 q 194 538 160 536 q 269 540 228 540 q 358 540 311 540 q 446 539 404 540 q 521 535 488 538 q 572 528 554 532 q 603 515 588 524 q 629 490 619 506 q 642 460 638 478 q 646 424 646 443 q 642 387 646 404 q 629 357 638 369 q 611 340 622 346 q 588 329 600 333 q 524 323 569 325 q 428 320 479 321 q 333 320 378 319 q 269 321 288 321 m 371 124 q 301 123 339 113 q 249 164 264 133 q 242 218 236 189 q 269 264 249 247 q 303 281 283 276 q 342 285 322 286 q 379 277 361 285 q 411 257 397 269 q 432 222 428 242 q 430 182 436 201 q 408 147 424 163 q 371 124 393 131 z "},"‘":{"ha":283,"x_min":33,"x_max":251,"o":"m 206 668 q 176 658 193 661 q 142 656 160 656 q 108 663 125 657 q 82 676 92 668 q 56 717 65 689 q 41 780 46 746 q 35 847 36 814 q 33 901 33 881 q 33 931 33 917 q 38 960 33 946 q 61 990 44 982 q 85 998 72 996 q 110 1003 97 1000 q 147 1005 126 1004 q 185 1001 167 1006 q 219 989 204 997 q 242 965 235 981 q 250 930 249 949 q 250 892 251 911 q 248 860 250 883 q 244 811 246 838 q 240 762 242 785 q 236 731 238 739 q 227 695 233 713 q 206 668 221 678 z "},"’":{"ha":283,"x_min":33,"x_max":251,"o":"m 206 668 q 176 658 193 661 q 142 656 160 656 q 108 663 125 657 q 82 676 92 668 q 56 717 65 689 q 41 780 46 746 q 35 847 36 814 q 33 901 33 881 q 33 931 33 917 q 38 960 33 946 q 61 990 44 982 q 85 998 72 996 q 110 1003 97 1000 q 147 1005 126 1004 q 185 1001 167 1006 q 219 989 204 997 q 242 965 235 981 q 250 930 249 949 q 250 892 251 911 q 248 860 250 883 q 244 811 246 838 q 240 762 242 785 q 236 731 238 739 q 227 695 233 713 q 206 668 221 678 z "},"“":{"ha":551,"x_min":33,"x_max":519,"o":"m 206 665 q 176 655 193 658 q 142 653 160 651 q 108 659 125 654 q 82 672 92 664 q 56 714 65 685 q 41 777 46 743 q 35 844 36 811 q 33 897 33 876 q 33 927 33 913 q 38 957 33 942 q 47 974 40 965 q 61 986 53 982 q 85 994 72 993 q 110 999 97 996 q 147 1001 126 1001 q 185 998 167 1001 q 219 986 204 994 q 242 963 235 978 q 250 926 249 944 q 250 888 251 907 q 248 856 250 879 q 244 807 246 833 q 240 758 242 781 q 236 726 238 735 q 227 692 233 710 q 206 665 221 674 m 474 663 q 444 653 461 656 q 410 651 428 650 q 376 657 392 651 q 349 671 360 663 q 323 713 332 683 q 308 776 314 742 q 302 842 303 810 q 301 896 301 875 q 301 926 301 911 q 306 954 301 940 q 329 985 311 976 q 353 992 340 990 q 378 997 365 994 q 415 999 394 999 q 453 996 435 1000 q 488 983 472 992 q 510 960 503 975 q 518 924 517 943 q 518 886 519 906 q 516 855 518 878 q 512 806 514 832 q 508 756 510 779 q 504 725 506 733 q 495 690 501 707 q 474 663 489 672 z "},"”":{"ha":551,"x_min":33,"x_max":519,"o":"m 206 665 q 176 655 193 658 q 142 653 160 651 q 108 659 125 654 q 82 672 92 664 q 56 714 65 685 q 41 777 46 743 q 35 844 36 811 q 33 897 33 876 q 33 927 33 913 q 38 957 33 942 q 47 974 40 965 q 61 986 53 982 q 85 994 72 993 q 110 999 97 996 q 147 1001 126 1001 q 185 998 167 1001 q 219 986 204 994 q 242 963 235 978 q 250 926 249 944 q 250 888 251 907 q 248 856 250 879 q 244 807 246 833 q 240 758 242 781 q 236 726 238 735 q 227 692 233 710 q 206 665 221 674 m 474 663 q 444 653 461 656 q 410 651 428 650 q 376 657 392 651 q 349 671 360 663 q 323 713 332 683 q 308 776 314 742 q 302 842 303 810 q 301 896 301 875 q 301 926 301 911 q 306 954 301 940 q 329 985 311 976 q 353 992 340 990 q 378 997 365 994 q 415 999 394 999 q 453 996 435 1000 q 488 983 472 992 q 510 960 503 975 q 518 924 517 943 q 518 886 519 906 q 516 855 518 878 q 512 806 514 832 q 508 756 510 779 q 504 725 506 733 q 495 690 501 707 q 474 663 489 672 z "},"€":{"ha":890,"x_min":22,"x_max":857,"o":"m 647 -12 q 500 -28 576 -35 q 357 10 424 -22 q 296 47 325 25 q 244 97 267 69 q 180 209 204 147 q 144 333 156 271 q 121 335 136 333 q 90 339 106 336 q 59 345 74 342 q 39 356 44 349 q 28 387 29 367 q 33 421 26 407 q 46 437 38 431 q 64 447 54 443 q 99 456 81 454 q 133 460 117 457 q 134 493 133 476 q 136 526 135 510 q 107 527 124 526 q 74 531 90 528 q 44 541 57 535 q 26 558 31 547 q 22 585 22 567 q 26 613 22 604 q 47 633 32 625 q 81 644 63 640 q 119 651 100 649 q 153 653 139 653 q 181 756 164 706 q 229 849 199 806 q 331 950 271 908 q 459 1008 392 992 q 596 1016 526 1025 q 726 965 665 1007 q 780 919 756 946 q 819 861 804 893 q 847 749 847 808 q 825 701 849 719 q 774 690 801 683 q 740 718 750 697 q 716 772 728 744 q 686 822 704 799 q 670 839 679 831 q 650 851 661 847 q 616 855 633 858 q 583 842 599 851 q 555 817 568 832 q 533 786 542 803 q 508 722 517 756 q 493 654 499 689 q 524 653 501 654 q 573 651 547 653 q 621 649 599 650 q 651 644 643 647 q 674 637 663 642 q 693 624 686 632 q 704 584 704 608 q 689 547 704 560 q 661 534 678 536 q 629 531 644 532 q 601 528 622 529 q 554 528 579 528 q 508 528 529 528 q 479 528 486 528 q 475 463 475 494 q 546 461 511 461 q 617 458 581 461 q 656 453 636 457 q 690 439 675 450 q 711 399 710 426 q 697 357 713 372 q 677 345 689 349 q 654 340 665 342 q 621 338 646 339 q 568 337 596 338 q 516 336 540 336 q 482 336 492 336 q 515 207 492 269 q 536 170 522 188 q 568 139 550 153 q 606 118 586 125 q 646 115 626 111 q 703 154 682 122 q 728 203 718 178 q 757 249 738 229 q 782 260 767 258 q 812 256 797 261 q 838 242 826 251 q 853 218 850 232 q 847 168 857 194 q 819 116 838 142 q 780 68 801 90 q 740 32 758 46 q 696 6 719 17 q 647 -12 672 -4 z "},"™":{"ha":885,"x_min":19,"x_max":849,"o":"m 250 601 q 219 594 236 596 q 184 595 201 593 q 151 604 167 597 q 128 624 136 611 q 117 645 121 633 q 113 669 114 657 q 113 791 108 731 q 118 914 118 851 q 64 914 90 911 q 42 920 53 914 q 26 936 31 926 q 23 976 19 951 q 38 1011 26 1000 q 55 1018 43 1017 q 81 1019 67 1019 q 108 1017 94 1019 q 129 1015 121 1015 q 157 1015 136 1015 q 202 1015 178 1015 q 247 1014 226 1014 q 275 1014 268 1014 q 299 1015 285 1014 q 328 1015 314 1017 q 355 1010 343 1014 q 371 997 367 1007 q 375 978 375 988 q 372 957 375 968 q 367 940 371 949 q 357 924 364 931 q 341 918 351 919 q 319 916 331 917 q 296 916 307 915 q 279 917 285 917 q 281 845 279 881 q 285 774 282 810 q 286 744 285 764 q 289 701 288 724 q 290 659 290 679 q 285 631 289 639 q 271 613 281 619 q 250 601 261 606 m 460 583 q 426 586 444 581 q 400 604 407 592 q 394 635 396 614 q 391 679 392 656 q 391 724 390 703 q 392 756 392 744 q 392 778 392 761 q 391 813 392 794 q 390 848 390 832 q 389 869 389 864 q 390 904 389 883 q 396 945 392 925 q 408 982 400 965 q 428 1006 415 999 q 475 1012 449 1017 q 517 988 501 1007 q 530 956 526 974 q 536 924 533 939 q 551 866 543 894 q 571 811 558 838 q 576 801 574 806 q 582 792 579 796 q 594 839 586 808 q 612 902 601 869 q 635 963 622 935 q 661 1001 649 990 q 692 1014 674 1011 q 715 1017 700 1015 q 744 1019 729 1018 q 774 1019 760 1019 q 796 1014 789 1018 q 810 999 804 1010 q 819 976 815 989 q 826 951 824 964 q 829 931 828 939 q 840 841 836 886 q 846 751 843 796 q 848 720 847 740 q 848 678 849 700 q 844 638 847 657 q 835 611 842 619 q 815 597 828 603 q 788 589 803 592 q 758 585 774 586 q 733 585 743 585 q 706 594 719 588 q 686 613 693 600 q 681 640 682 621 q 680 682 679 660 q 682 724 681 704 q 683 754 683 744 q 663 703 674 729 q 632 660 653 676 q 581 640 611 642 q 531 658 550 639 q 504 697 514 675 q 486 740 494 719 q 490 714 488 732 q 494 675 492 696 q 497 636 496 654 q 494 610 497 618 q 481 592 490 599 q 460 583 471 585 z "},"−":{"ha":675,"x_min":26,"x_max":650,"o":"m 274 321 q 217 319 251 321 q 147 318 182 317 q 83 327 113 319 q 40 353 53 335 q 28 392 29 369 q 26 435 26 414 q 34 474 28 454 q 56 506 40 493 q 99 526 75 521 q 146 535 122 532 q 198 538 164 536 q 274 540 232 540 q 362 540 315 540 q 450 539 408 540 q 525 535 492 538 q 576 528 558 532 q 608 515 592 524 q 633 490 624 506 q 646 460 642 478 q 650 424 650 443 q 646 387 650 404 q 633 357 642 369 q 615 340 626 346 q 592 329 604 333 q 528 323 574 325 q 433 320 483 321 q 337 320 382 319 q 274 321 292 321 z "},"|":{"ha":378,"x_min":60,"x_max":322,"o":"m 306 -114 q 278 -136 297 -128 q 238 -148 260 -144 q 195 -151 217 -151 q 157 -149 174 -151 q 97 -117 121 -144 q 81 -87 86 -104 q 74 -54 76 -71 q 66 17 67 -18 q 64 88 65 51 q 64 211 63 150 q 64 335 65 272 q 61 613 63 475 q 65 890 60 751 q 68 961 67 926 q 75 1032 69 996 q 84 1067 78 1050 q 101 1099 90 1085 q 134 1119 114 1113 q 177 1126 154 1125 q 223 1123 200 1126 q 263 1114 246 1119 q 300 1089 286 1104 q 316 1059 311 1076 q 321 1024 321 1042 q 321 979 322 1001 q 318 935 319 957 q 308 467 308 700 q 317 0 308 235 q 318 -36 318 -18 q 315 -72 318 -54 q 306 -114 315 -96 z "},"`":{"ha":243,"x_min":19,"x_max":222,"o":"m 183 793 q 151 785 167 781 q 138 794 143 788 q 126 808 132 801 q 106 829 121 814 q 74 861 90 844 q 43 894 57 878 q 25 917 29 910 q 24 941 19 928 q 36 965 29 954 q 54 985 43 975 q 77 1004 65 996 q 102 1017 89 1013 q 126 1018 115 1021 q 147 1007 138 1015 q 164 989 157 999 q 197 938 182 965 q 217 883 211 910 q 215 832 222 856 q 183 793 208 808 z "}}}
